<svg width="109" height="29" viewBox="0 0 109 29" fill="none" xmlns="http://www.w3.org/2000/svg">
<path d="M13.585 6.79249C13.585 10.5439 10.5439 13.585 6.79249 13.585C3.0411 13.585 0 10.5439 0 6.79249C0 3.0411 3.0411 0 6.79249 0C10.5439 0 13.585 3.0411 13.585 6.79249Z" fill="#275B96"/>
<path d="M14.4832 6.7925C14.4832 3.04111 17.5243 0 21.2757 0C25.0271 0 28.0682 3.0411 28.0682 6.79249C28.0682 10.5439 25.0271 13.585 21.2757 13.585H14.4832V6.7925Z" fill="#275B96"/>
<path d="M0 21.2757C0 17.5243 3.0411 14.4832 6.79249 14.4832H13.585V21.2757C13.585 25.0271 10.5439 28.0682 6.79249 28.0682C3.0411 28.0682 0 25.0271 0 21.2757Z" fill="#275B96"/>
<path d="M28.0682 21.2757C28.0682 25.0271 25.0271 28.0682 21.2757 28.0682C17.5243 28.0682 14.4832 25.0271 14.4832 21.2757C14.4832 17.5243 17.5243 14.4832 21.2757 14.4832C25.0271 14.4832 28.0682 17.5243 28.0682 21.2757Z" fill="#275B96"/>
<path d="M49.9729 7.50141H43.5939L45.2182 5.56283V23.678H41.1707V5.56283L42.8473 7.50141H36.4291V4.35777H49.9729V7.50141ZM50.8744 23.678V9.76744H54.9481V14.5615L54.1098 14.0375C54.2058 13.3826 54.3805 12.7801 54.6337 12.23C54.8869 11.6798 55.2144 11.2039 55.6161 10.8022C56.0178 10.3918 56.4937 10.0731 57.0438 9.84603C57.6027 9.61899 58.2402 9.50547 58.9562 9.50547C59.5151 9.50547 59.9517 9.54914 60.266 9.63646C60.5891 9.71505 60.79 9.77617 60.8686 9.81984L60.2006 13.4612C60.122 13.4176 59.9473 13.3477 59.6766 13.2516C59.4059 13.1556 59.0566 13.1076 58.6287 13.1076C57.9302 13.1076 57.3451 13.2254 56.8735 13.4612C56.402 13.697 56.0221 14.0113 55.734 14.4043C55.4545 14.7885 55.2537 15.2164 55.1314 15.688C55.0092 16.1595 54.9481 16.6354 54.9481 17.1157V23.678H50.8744ZM64.2269 17.9409V15.2557H73.4482L73.0553 15.9368C73.0553 15.867 73.0553 15.8015 73.0553 15.7403C73.0553 15.6705 73.0553 15.605 73.0553 15.5439C73.0553 15.0461 72.9374 14.5702 72.7016 14.1161C72.4658 13.6533 72.0991 13.2778 71.6013 12.9897C71.1123 12.6928 70.4836 12.5443 69.7152 12.5443C68.9467 12.5443 68.2831 12.7102 67.7242 13.0421C67.1741 13.3652 66.7505 13.8323 66.4536 14.4436C66.1655 15.0549 66.0214 15.7927 66.0214 16.6572C66.0214 17.5479 66.1611 18.312 66.4405 18.9495C66.7287 19.5782 67.1522 20.0628 67.7111 20.4034C68.2787 20.744 68.9817 20.9142 69.82 20.9142C70.3614 20.9142 70.8285 20.8662 71.2215 20.7702C71.6144 20.6654 71.9332 20.5344 72.1777 20.3772C72.4309 20.22 72.623 20.0454 72.754 19.8533C72.885 19.6612 72.9636 19.4734 72.9898 19.29H76.9979C76.9455 19.8751 76.7447 20.4514 76.3954 21.019C76.0461 21.5779 75.5614 22.0844 74.9415 22.5385C74.3215 22.9838 73.5661 23.3375 72.6754 23.5994C71.7935 23.8614 70.7849 23.9924 69.6497 23.9924C68.1128 23.9924 66.7724 23.6868 65.6284 23.0755C64.4845 22.4555 63.5982 21.6041 62.9695 20.5213C62.3407 19.4297 62.0264 18.1723 62.0264 16.7489C62.0264 15.3081 62.3451 14.0463 62.9825 12.9635C63.6287 11.8719 64.5238 11.0249 65.6677 10.4224C66.8204 9.8111 68.1521 9.50547 69.6628 9.50547C71.2084 9.50547 72.5444 9.81547 73.6709 10.4355C74.7974 11.0467 75.6662 11.9069 76.2775 13.0159C76.8888 14.1161 77.1944 15.3998 77.1944 16.8668C77.1944 17.0851 77.19 17.2947 77.1813 17.4955C77.1726 17.6964 77.1595 17.8448 77.142 17.9409H64.2269ZM82.8468 20.4951H90.3915V23.678H78.4981V20.6654L85.8594 12.7932L85.9511 12.9373H78.7601V9.76744H90.2343V12.7801L82.9385 20.6261L82.8468 20.4951ZM99.3895 23.9793C97.8876 23.9793 96.5646 23.6693 95.4207 23.0493C94.2768 22.4293 93.3817 21.5779 92.7355 20.4951C92.0981 19.4036 91.7793 18.1461 91.7793 16.7227C91.7793 15.3081 92.0981 14.0594 92.7355 12.9766C93.3817 11.885 94.2768 11.038 95.4207 10.4355C96.5646 9.8242 97.8876 9.51857 99.3895 9.51857C100.892 9.51857 102.214 9.8242 103.358 10.4355C104.502 11.038 105.393 11.885 106.03 12.9766C106.677 14.0594 107 15.3081 107 16.7227C107 18.1461 106.677 19.4036 106.03 20.4951C105.393 21.5779 104.502 22.4293 103.358 23.0493C102.214 23.6693 100.892 23.9793 99.3895 23.9793ZM99.3895 20.7571C100.097 20.7571 100.712 20.5911 101.236 20.2593C101.76 19.9275 102.166 19.4603 102.455 18.8578C102.743 18.2465 102.887 17.5348 102.887 16.7227C102.887 15.9106 102.743 15.2077 102.455 14.6139C102.166 14.0113 101.76 13.5485 101.236 13.2254C100.712 12.9023 100.097 12.7408 99.3895 12.7408C98.691 12.7408 98.0753 12.9023 97.5427 13.2254C97.0187 13.5485 96.6127 14.0113 96.3245 14.6139C96.0363 15.2077 95.8923 15.9106 95.8923 16.7227C95.8923 17.5348 96.0363 18.2465 96.3245 18.8578C96.6127 19.4603 97.0187 19.9275 97.5427 20.2593C98.0753 20.5911 98.691 20.7571 99.3895 20.7571Z" fill="white"/>
</svg>
