<svg width="48" height="48" viewBox="0 0 48 48" fill="none" xmlns="http://www.w3.org/2000/svg">
<g clip-path="url(#clip0_9016_87)">
<path fill-rule="evenodd" clip-rule="evenodd" d="M30.927 33.4439C30.0993 33.5216 29.0895 33.8071 29.0156 33.0193C28.9417 32.2316 29.987 32.3243 30.8147 32.2466C31.6028 32.1727 31.7151 33.37 30.927 33.4439ZM38.9655 35.8325L10.7498 38.4797C9.85689 38.5634 9.19865 39.358 9.28243 40.2509L9.4343 41.8707L41.0097 38.9082L40.8578 37.2884C40.7706 36.359 39.9772 35.7243 38.9655 35.8325ZM10.3066 37.3332L10.8225 34.629L10.0664 20.6973C9.73544 14.6024 13.2285 9.24094 18.4323 7.15725L18.3304 6.07078C18.142 4.06378 19.6216 2.2777 21.6286 2.0894C23.6356 1.90109 25.4217 3.38077 25.61 5.38778L25.712 6.47425C31.2125 7.55354 35.642 12.1717 36.4505 18.2218L38.299 32.0511L39.3089 34.6121C40.7213 34.6461 41.9202 35.7355 42.0554 37.1761L42.2635 39.3946C42.2943 39.7253 42.0515 40.0184 41.7208 40.0494L30.0941 41.1403C30.0734 43.5717 28.2097 45.6482 25.7373 45.8802C23.2648 46.1122 21.0474 44.4186 20.5748 42.0334L8.94823 43.1243C8.61757 43.1553 8.32432 42.9124 8.2933 42.5818L8.08515 40.3633C7.95 38.9228 8.9253 37.6294 10.3067 37.3331L10.3066 37.3332ZM19.6022 6.75323C21.1865 6.29038 22.8444 6.13483 24.4871 6.29491L24.4125 5.49999C24.2862 4.1533 23.0879 3.16041 21.741 3.28678C20.3942 3.41314 19.4013 4.61171 19.5276 5.95841L19.6022 6.75323ZM38.0546 34.7099L37.319 32.8443L32.8508 33.2635C32.0627 33.3374 31.9504 32.1401 32.7385 32.0662L37.0338 31.6631L35.2586 18.3811C34.361 11.6665 28.5966 6.88163 22.1352 7.48787C15.6737 8.09411 10.8998 13.8677 11.2672 20.632L12.0176 34.7823L11.5571 37.196L38.0546 34.7099ZM32.5043 19.3554C32.1846 19.3854 31.8956 19.1576 31.8526 18.8364C31.2005 13.9579 27.0731 10.4759 22.4562 10.909C21.668 10.983 21.5555 9.78557 22.3439 9.71161C27.7871 9.2009 32.3301 13.3269 33.0446 18.677C33.0898 19.0151 32.8442 19.3235 32.5043 19.3554ZM21.7806 41.9203C22.1847 43.6441 23.8134 44.8528 25.625 44.6828C27.4365 44.5129 28.8119 43.0223 28.8882 41.2534L21.7806 41.9203ZM40.2422 18.358C39.9223 18.388 39.6334 18.16 39.5905 17.8388C39.0136 13.5242 36.7301 9.5723 33.3253 6.99649C32.6942 6.51905 33.4193 5.55959 34.051 6.03738C37.7098 8.80552 40.1634 13.049 40.7823 17.6795C40.8274 18.0174 40.5821 18.3261 40.2422 18.358Z" fill="#52050D"/>
<path fill-rule="evenodd" clip-rule="evenodd" d="M29.0156 33.0193C28.9417 32.2315 29.987 32.3242 30.8147 32.2466C31.6028 32.1726 31.7151 33.3699 30.927 33.4439C30.0993 33.5215 29.0895 33.807 29.0156 33.0193ZM11.557 37.1959L38.0547 34.7098L37.319 32.8442L32.8509 33.2634C32.0627 33.3373 31.9504 32.14 32.7385 32.0661L37.0339 31.6631L35.2586 18.381C34.361 11.6664 28.5966 6.88155 22.1352 7.48778C15.6737 8.09402 10.8998 13.8676 11.2672 20.6319L12.0177 34.7823L11.557 37.1959ZM32.5043 19.3553C32.1846 19.3853 31.8956 19.1575 31.8526 18.8363C31.2005 13.9578 27.0731 10.4758 22.4562 10.909C21.668 10.9829 21.5555 9.78549 22.3439 9.71152C27.7871 9.20082 32.33 13.3268 33.0446 18.6769C33.0898 19.015 32.8442 19.3234 32.5043 19.3553Z" fill="#FF4500"/>
<path fill-rule="evenodd" clip-rule="evenodd" d="M19.6022 6.75327C21.1866 6.29042 22.8444 6.13487 24.4871 6.29495L24.4125 5.50003C24.2862 4.15334 23.0879 3.16045 21.741 3.28682C20.3942 3.41318 19.4013 4.61175 19.5276 5.95845L19.6022 6.75327Z" fill="#FFD300"/>
<path fill-rule="evenodd" clip-rule="evenodd" d="M38.9656 35.8324L10.7499 38.4796C9.857 38.5634 9.19876 39.3579 9.28253 40.2509L9.4344 41.8706L41.0098 38.9081L40.8579 37.2884C40.7707 36.359 39.9773 35.7243 38.9656 35.8324Z" fill="#FFD300"/>
<path fill-rule="evenodd" clip-rule="evenodd" d="M28.8882 41.2534L21.7806 41.9203C22.1847 43.6441 23.8134 44.8528 25.625 44.6828C27.4365 44.5129 28.8118 43.0223 28.8882 41.2534Z" fill="#FFD300"/>
</g>
<defs>
<clipPath id="clip0_9016_87">
<rect width="44" height="44" fill="white" transform="translate(0 4.11023) rotate(-5.36)"/>
</clipPath>
</defs>
</svg>
