<svg width="34" height="34" viewBox="0 0 34 34" fill="none" xmlns="http://www.w3.org/2000/svg">
<g clip-path="url(#clip0_9057_259)">
<path d="M21.0977 5.66499C20.6822 5.64813 20.2668 5.64813 19.8513 5.66499C19.0088 5.69926 18.3297 6.37508 18.2961 7.21757C18.2463 8.46561 18.2768 9.71372 18.3877 10.9618C19.7789 11.1512 21.1701 11.1512 22.5613 10.9618C22.6722 9.71365 22.7028 8.46561 22.653 7.21751C22.6193 6.37508 21.9401 5.69919 21.0977 5.66499Z" fill="#DD636E"/>
<path d="M19.7491 10.962C20.2179 11.0257 20.6867 11.0682 21.1556 11.0888C20.2332 11.13 19.3101 11.0875 18.3877 10.962C18.2768 9.71352 18.2463 8.46574 18.2961 7.21737C18.3293 6.37534 19.0086 5.69933 19.8513 5.66479C20.2664 5.64819 20.6821 5.64819 21.0978 5.66479C21.117 5.66546 21.1363 5.66679 21.1556 5.66878C20.3394 5.73054 19.69 6.3946 19.6574 7.21737C19.6076 8.46581 19.6382 9.71358 19.7491 10.962Z" fill="#DA4A54"/>
<path d="M32.5413 29.066C32.5413 29.066 32.9139 23.6999 31.589 20.4537C31.589 20.4537 30.0653 19.2613 28.0778 18.9962C28.0778 18.9962 28.1337 14.0194 27.3722 11.0014C27.2564 10.5428 26.8813 10.196 26.4142 10.1217C25.1914 9.92738 11.9411 9.61154 5.15275 9.89032C3.08789 9.97512 1.45886 11.6761 1.45886 13.7427V29.0659L14.8281 30.1258L32.5413 29.066Z" fill="#F5F0F0"/>
<path d="M16.7914 30.0084L14.8278 30.126L1.45886 29.0661V13.7428C1.45886 11.6763 3.08782 9.97499 5.15308 9.88999C7.51052 9.79303 10.6475 9.76846 13.7892 9.78506C11.878 9.79702 10.0831 9.82956 8.5976 9.88999C6.53301 9.97499 4.90412 11.6763 4.90412 13.7428V29.0661L16.7914 30.0084Z" fill="#E8DED8"/>
<path d="M1.45862 29.0659H32.5414C33.0719 29.0659 33.5019 29.496 33.5019 30.0265C33.5019 30.557 33.0719 30.9871 32.5414 30.9871H1.45862C0.928098 30.9871 0.498047 30.557 0.498047 30.0265C0.498047 29.496 0.928098 29.0659 1.45862 29.0659Z" fill="#F5F0F0"/>
<path d="M33.5016 30.027C33.5016 30.292 33.3941 30.5324 33.2201 30.7057C33.0461 30.8797 32.8057 30.9872 32.5407 30.9872H1.45859C0.927997 30.9872 0.497681 30.5569 0.497681 30.027C0.497681 29.8723 0.534204 29.7262 0.599947 29.5967C0.757996 29.9108 1.08273 30.1259 1.45859 30.1259H32.5407C32.8057 30.1259 33.0461 30.0184 33.2201 29.845C33.2925 29.7727 33.3536 29.689 33.3994 29.5967C33.4651 29.7262 33.5016 29.8723 33.5016 30.027Z" fill="#E8DED8"/>
<path d="M28.0778 18.9964H21.5521C20.8754 18.9964 20.3607 18.3895 20.471 17.7221L21.3017 12.6925C21.3887 12.1632 21.8463 11.7754 22.3828 11.7754H27.5426C28.125 14.7989 28.0778 18.9964 28.0778 18.9964Z" fill="#BEE5F0"/>
<path d="M29.7136 25.1327C29.2562 25.1327 28.8855 24.7619 28.8855 24.3046V22.4497C28.8855 21.9923 29.2562 21.6216 29.7136 21.6216C30.1709 21.6216 30.5417 21.9923 30.5417 22.4497V24.3046C30.5417 24.7619 30.1709 25.1327 29.7136 25.1327Z" fill="#FFD064"/>
<path d="M7.49988 33.4939C9.63722 33.4939 11.3699 31.7612 11.3699 29.6239C11.3699 27.4866 9.63722 25.7539 7.49988 25.7539C5.36254 25.7539 3.62988 27.4866 3.62988 29.6239C3.62988 31.7612 5.36254 33.4939 7.49988 33.4939Z" fill="#2B4D66"/>
<path d="M24.2137 33.4939C26.3511 33.4939 28.0837 31.7612 28.0837 29.6239C28.0837 27.4866 26.3511 25.7539 24.2137 25.7539C22.0764 25.7539 20.3438 27.4866 20.3438 29.6239C20.3438 31.7612 22.0764 33.4939 24.2137 33.4939Z" fill="#2B4D66"/>
<path d="M24.2137 31.4649C25.2307 31.4649 26.0551 30.6405 26.0551 29.6235C26.0551 28.6066 25.2307 27.7822 24.2137 27.7822C23.1968 27.7822 22.3724 28.6066 22.3724 29.6235C22.3724 30.6405 23.1968 31.4649 24.2137 31.4649Z" fill="#F5F0F0"/>
<path d="M7.49988 31.4649C8.51681 31.4649 9.34119 30.6405 9.34119 29.6235C9.34119 28.6066 8.51681 27.7822 7.49988 27.7822C6.48295 27.7822 5.65857 28.6066 5.65857 29.6235C5.65857 30.6405 6.48295 31.4649 7.49988 31.4649Z" fill="#F5F0F0"/>
<path d="M7.87587 31.4266C7.75435 31.4518 7.62884 31.4651 7.50001 31.4651C6.48334 31.4651 5.65857 30.6404 5.65857 29.6237C5.65857 28.607 6.48334 27.7822 7.50001 27.7822C7.62884 27.7822 7.75435 27.7955 7.87587 27.8207C7.03849 27.9941 6.40962 28.7358 6.40962 29.6237C6.40962 30.5115 7.03849 31.2533 7.87587 31.4266Z" fill="#E8DED8"/>
<path d="M24.5895 31.4266C24.468 31.4518 24.3425 31.4651 24.2136 31.4651C23.197 31.4651 22.3722 30.6404 22.3722 29.6237C22.3722 28.607 23.197 27.7822 24.2136 27.7822C24.3425 27.7822 24.468 27.7955 24.5895 27.8207C23.7521 27.9941 23.1232 28.7358 23.1232 29.6237C23.1233 30.5115 23.7521 31.2533 24.5895 31.4266Z" fill="#E8DED8"/>
<path d="M24.5906 4.64053L24.4809 4.57851C24.094 4.35977 23.9426 3.87886 24.1344 3.47803L24.7242 2.24493C24.9355 1.80326 25.4766 1.63286 25.9028 1.87385L26.1753 2.02798C26.6015 2.26897 26.7345 2.82047 26.4649 3.2292L25.7122 4.3702C25.4675 4.74114 24.9774 4.85928 24.5906 4.64053Z" fill="#DD636E"/>
<path d="M20.5443 3.56127L20.4183 3.5624C19.9739 3.56638 19.6024 3.22559 19.568 2.78259L19.4622 1.4198C19.4243 0.931648 19.8078 0.513554 20.2974 0.509171L20.6104 0.506382C21.1 0.502 21.4909 0.913187 21.4617 1.40187L21.3804 2.76632C21.354 3.20991 20.9886 3.55728 20.5443 3.56127Z" fill="#DD636E"/>
<path d="M16.5005 4.65L16.3919 4.71395C16.0091 4.9396 15.5169 4.83023 15.2656 4.46373L14.4926 3.33642C14.2158 2.9326 14.3388 2.37878 14.7606 2.13022L15.0303 1.97124C15.4521 1.72268 15.9962 1.88332 16.2153 2.32114L16.8271 3.54348C17.0261 3.94085 16.8833 4.42435 16.5005 4.65Z" fill="#DD636E"/>
<path d="M13.0734 16.165L9.97139 17.4397L8.65002 20.5884C9.33421 21.2726 10.0288 21.9474 10.7339 22.6108C11.938 23.7434 13.834 23.7291 15.0051 22.5624L15.0469 22.5206C16.2141 21.349 16.2278 19.4536 15.0952 18.2495C14.4319 17.5444 13.7576 16.8492 13.0734 16.165Z" fill="#DD636E"/>
<path d="M6.71854 14.191L6.67624 14.2333C5.51006 15.405 5.49526 17.3004 6.62842 18.5039C7.29176 19.209 7.96606 19.9042 8.65025 20.5883L13.0736 16.165C12.3894 15.4808 11.6942 14.8065 10.9892 14.1432C9.78561 13.01 7.89022 13.0249 6.71854 14.191Z" fill="#FFD064"/>
<path d="M8.6499 20.5883C9.33422 21.2726 10.029 21.9465 10.7343 22.6101C11.9379 23.7433 13.8338 23.729 15.0049 22.5623L15.0197 22.5475C14.6532 22.9097 13.4145 22.2667 12.2352 21.1093C11.5444 20.4313 10.5822 19.4753 9.89794 18.791" fill="#DA4A54"/>
<path d="M6.69079 14.2188L6.67598 14.2336C5.50982 15.4052 5.49501 17.3006 6.62817 18.5041C7.2915 19.2092 7.96579 19.9043 8.64997 20.5885L10.1728 19.0657C9.48862 18.3815 8.80663 17.694 8.12902 17.0032C6.97162 15.824 6.32921 14.5858 6.69079 14.2188Z" fill="#EBB044"/>
<path d="M33.0614 28.6647C33.1208 27.2982 33.1959 23.0722 32.0499 20.2656C32.0172 20.1854 31.964 20.1151 31.8958 20.0617C31.8339 20.0133 30.4566 18.9485 28.5769 18.5746C28.572 17.2906 28.5011 13.4404 27.855 10.8799C27.6903 10.2261 27.1556 9.73547 26.4924 9.62975C26.1401 9.57377 24.9029 9.51035 23.1537 9.45311C23.1811 8.7049 23.1805 7.94852 23.1507 7.19733C23.1067 6.10381 22.214 5.21203 21.1177 5.16707C20.6909 5.15001 20.2582 5.15007 19.831 5.16707C18.7353 5.21196 17.8425 6.10374 17.7985 7.1976C17.7704 7.90908 17.7689 8.62342 17.7917 9.32886C15.1276 9.28742 12.2123 9.26903 9.58364 9.29353C9.30852 9.29605 9.08765 9.52111 9.09017 9.79616C9.0927 10.0697 9.31523 10.2896 9.58809 10.2896H9.59281C16.7687 10.2233 25.4455 10.4721 26.336 10.6135C26.6048 10.6563 26.8219 10.8564 26.8891 11.1234C26.9019 11.1741 26.9144 11.2256 26.9267 11.2776H22.3826C21.5992 11.2776 20.938 11.8386 20.8104 12.6115L19.9796 17.6414C19.9032 18.1041 20.0334 18.5745 20.3367 18.9321C20.6401 19.2896 21.083 19.4947 21.5519 19.4947H28.0446C29.5718 19.7074 30.8216 20.5193 31.179 20.7712C32.1706 23.3333 32.1185 27.2374 32.067 28.5685H28.4522C27.9788 26.6682 26.2584 25.2558 24.2136 25.2558C23.4553 25.2558 22.7082 25.4534 22.0529 25.8273C21.814 25.9637 21.7308 26.2678 21.8672 26.5067C22.0034 26.7457 22.3076 26.8288 22.5465 26.6925C23.0516 26.4043 23.6281 26.2519 24.2136 26.2519C26.073 26.2519 27.5858 27.7647 27.5858 29.6241C27.5858 31.4831 26.073 32.9955 24.2136 32.9955C22.3546 32.9955 20.8421 31.4831 20.8421 29.6241C20.8421 29.0161 21.0052 28.4214 21.3137 27.9043C21.4546 27.6681 21.3773 27.3623 21.141 27.2214C20.9048 27.0805 20.5992 27.1577 20.4582 27.3941C20.2397 27.7603 20.0779 28.1564 19.9755 28.5685H11.7383C11.2649 26.6683 9.54453 25.2558 7.49986 25.2558C5.45519 25.2558 3.73479 26.6683 3.26144 28.5685H1.95668V13.7429C1.95668 11.9361 3.36955 10.4626 5.17323 10.3882C5.90563 10.3583 6.72682 10.3343 7.61375 10.3169C7.88881 10.3114 8.10735 10.0842 8.10191 9.80911C8.09653 9.53406 7.86809 9.31598 7.59416 9.32096C6.70019 9.33855 5.87196 9.36273 5.13239 9.39301C2.79307 9.48936 0.960642 11.4 0.960642 13.7429V28.6574C0.763082 28.7291 0.581127 28.8423 0.427461 28.9953C0.151806 29.2709 0 29.6372 0 30.0268C0 30.8313 0.65444 31.4858 1.45896 31.4858H3.54958C4.24991 32.9655 5.75701 33.9919 7.49993 33.9919C9.24284 33.9919 10.7499 32.9655 11.4503 31.4858H20.2638C20.964 32.9654 22.471 33.9917 24.2137 33.9917C25.9567 33.9917 27.4639 32.9654 28.1642 31.4858H32.5412C32.9306 31.4858 33.297 31.334 33.5727 31.0583C33.8483 30.7827 34.0001 30.4164 34.0001 30.0268C34 29.4059 33.6096 28.8747 33.0614 28.6647ZM18.7938 7.23751C18.8171 6.6585 19.2905 6.18635 19.8712 6.16251C20.2716 6.14651 20.6776 6.14651 21.0774 6.16251C21.6586 6.18635 22.1321 6.6585 22.1553 7.23717C22.1842 7.96499 22.1847 8.69799 22.158 9.42289C21.1413 9.39407 20.0002 9.36771 18.7891 9.34579C18.7653 8.64825 18.7659 7.94149 18.7938 7.23751ZM27.5794 18.4987H23.4085V12.2737H27.1262C27.5111 14.5534 27.5714 17.3771 27.5794 18.4987ZM21.0963 18.2877C20.9809 18.1517 20.9333 17.9798 20.9623 17.8038L21.7931 12.7738C21.841 12.484 22.0889 12.2737 22.3826 12.2737H22.4124V18.4987H21.5519C21.3735 18.4987 21.2117 18.4238 21.0963 18.2877ZM1.45896 30.4897C1.20376 30.4897 0.996103 30.282 0.996103 30.0268C0.996103 29.9033 1.04431 29.7872 1.13104 29.7003C1.2189 29.6128 1.33531 29.5646 1.45896 29.5646H3.13334C3.13308 29.5844 3.13182 29.604 3.13182 29.6239C3.13182 29.9202 3.16177 30.2097 3.21834 30.4897H1.45896ZM7.49986 32.9958C5.64054 32.9958 4.12792 31.4831 4.12792 29.6239C4.12792 27.7646 5.64054 26.2519 7.49986 26.2519C9.35919 26.2519 10.8718 27.7646 10.8718 29.6239C10.8718 31.4831 9.35926 32.9958 7.49986 32.9958ZM11.7814 30.4897C11.838 30.2097 11.868 29.9202 11.868 29.6239C11.868 29.604 11.8667 29.5844 11.8664 29.5646H19.847C19.8468 29.5845 19.846 29.6043 19.846 29.6241C19.846 29.9204 19.876 30.2098 19.9325 30.4897H11.7814ZM32.8682 30.3539C32.7807 30.4415 32.6646 30.4896 32.541 30.4896H28.4954C28.5519 30.2097 28.5819 29.9203 28.5819 29.6241C28.5819 29.6041 28.5806 29.5845 28.5803 29.5646H32.541C32.7962 29.5646 33.0039 29.7719 33.0039 30.0268C33.0039 30.1503 32.9557 30.2665 32.8682 30.3539Z" fill="black"/>
<path d="M31.0398 24.3047V22.4497C31.0398 21.7185 30.4449 21.1235 29.7137 21.1235C28.9824 21.1235 28.3875 21.7184 28.3875 22.4497V24.3047C28.3875 25.0359 28.9824 25.6308 29.7137 25.6308C30.4449 25.6308 31.0398 25.0359 31.0398 24.3047ZM29.3836 24.3047V22.4497C29.3836 22.2677 29.5316 22.1196 29.7137 22.1196C29.8957 22.1196 30.0438 22.2676 30.0438 22.4497V24.3047C30.0438 24.4867 29.8957 24.6347 29.7137 24.6347C29.5316 24.6347 29.3836 24.4866 29.3836 24.3047Z" fill="black"/>
<path d="M26.553 29.624C26.553 28.3342 25.5036 27.2847 24.2137 27.2847C22.9237 27.2847 21.8744 28.3341 21.8744 29.624C21.8744 30.914 22.9238 31.9634 24.2137 31.9634C25.5037 31.9634 26.553 30.914 26.553 29.624ZM22.8705 29.624C22.8705 28.8834 23.4731 28.2808 24.2137 28.2808C24.9544 28.2808 25.557 28.8833 25.557 29.624C25.557 30.3647 24.9544 30.9673 24.2137 30.9673C23.4731 30.9673 22.8705 30.3647 22.8705 29.624Z" fill="black"/>
<path d="M7.49988 27.2847C6.20994 27.2847 5.16052 28.3341 5.16052 29.624C5.16052 30.914 6.20994 31.9634 7.49988 31.9634C8.78982 31.9634 9.83924 30.914 9.83924 29.624C9.83924 28.3341 8.78982 27.2847 7.49988 27.2847ZM7.49988 30.9673C6.75925 30.9673 6.15662 30.3647 6.15662 29.624C6.15662 28.8834 6.75919 28.2808 7.49988 28.2808C8.24058 28.2808 8.84315 28.8833 8.84315 29.624C8.84315 30.3647 8.24058 30.9673 7.49988 30.9673Z" fill="black"/>
<path d="M24.2358 5.01204L24.3454 5.07406C24.5524 5.1912 24.779 5.24705 25.0033 5.24705C25.4419 5.24705 25.8716 5.03296 26.128 4.64442L26.8806 3.50336C27.0848 3.19377 27.1521 2.80941 27.0652 2.44889C26.9783 2.08837 26.7432 1.77693 26.4205 1.59438L26.148 1.44025C25.8252 1.2577 25.437 1.21686 25.0833 1.32829C24.7296 1.43965 24.435 1.69545 24.275 2.02993L23.6852 3.26303C23.3817 3.89754 23.6235 4.6658 24.2358 5.01204ZM24.5837 3.69288L25.1735 2.45978C25.2155 2.37206 25.2897 2.30765 25.3824 2.27849C25.417 2.2676 25.4524 2.26216 25.4875 2.26216C25.5464 2.26216 25.6046 2.27736 25.6576 2.30738L25.9302 2.46151C26.0148 2.50939 26.074 2.58781 26.0968 2.68238C26.1196 2.77694 26.1027 2.87376 26.0491 2.95491L25.2965 4.0959C25.1964 4.24764 24.9939 4.29645 24.8358 4.207C24.8357 4.207 24.8357 4.207 24.8357 4.207L24.726 4.14497C24.5678 4.05546 24.5053 3.8569 24.5837 3.69288Z" fill="black"/>
<path d="M19.0714 2.82114C19.1255 3.5184 19.7126 4.06054 20.4106 4.06054C20.4148 4.06054 20.4187 4.06054 20.4228 4.06048L20.5487 4.05935C21.252 4.05304 21.8358 3.49815 21.8776 2.79604L21.959 1.43152C21.9811 1.0613 21.8471 0.694809 21.5916 0.426062C21.3388 0.160172 20.9845 0.00830078 20.618 0.00830078C20.614 0.00830078 20.6101 0.00830078 20.6061 0.00836719L20.2929 0.0111562C19.9221 0.0144766 19.5657 0.173121 19.315 0.446449C19.0643 0.719777 18.937 1.0886 18.9656 1.45841L19.0714 2.82114ZM20.0491 1.11974C20.1148 1.04802 20.2046 1.00811 20.3018 1.00725L20.615 1.00446H20.6182C20.7142 1.00446 20.8034 1.04271 20.8697 1.11244C20.9368 1.18296 20.9705 1.27527 20.9647 1.37235L20.8834 2.7368C20.8726 2.91829 20.7216 3.06173 20.5398 3.06339L20.4139 3.06452C20.4128 3.06452 20.4118 3.06452 20.4108 3.06452C20.2303 3.06452 20.0786 2.9244 20.0646 2.74411L19.9588 1.38138C19.9512 1.28436 19.9833 1.19146 20.0491 1.11974Z" fill="black"/>
<path d="M14.8549 4.74536C15.1133 5.12222 15.5356 5.32788 15.966 5.32788C16.198 5.32788 16.4326 5.26805 16.645 5.14287L16.7533 5.07899C17.3594 4.72185 17.5874 3.94942 17.2726 3.32048L16.6608 2.09821C16.4947 1.76651 16.1956 1.51609 15.8399 1.4111C15.4842 1.30605 15.097 1.35386 14.7775 1.54219L14.5077 1.70117C14.1882 1.8895 13.9588 2.20512 13.8784 2.56717C13.798 2.92922 13.8721 3.31225 14.0818 3.61812L14.8549 4.74536ZM14.8509 2.78306C14.872 2.6881 14.9298 2.60861 15.0135 2.5592L15.2833 2.40023C15.3376 2.36822 15.3978 2.35182 15.4587 2.35182C15.4918 2.35182 15.5252 2.3566 15.5579 2.36629C15.6512 2.39385 15.7266 2.45687 15.7701 2.54386L16.3819 3.7662C16.4633 3.92876 16.4043 4.12845 16.2477 4.22075L16.2475 4.22082L16.1391 4.2847C15.9826 4.37701 15.7792 4.33178 15.6764 4.18197L14.9034 3.05459C14.8485 2.97451 14.8297 2.87802 14.8509 2.78306Z" fill="black"/>
<path d="M6.32343 13.8822C5.66773 14.5407 5.30137 15.4178 5.29194 16.3519C5.28251 17.283 5.62822 18.1687 6.26553 18.846C7.593 20.2568 8.9817 21.6454 10.3929 22.9734C11.0612 23.6022 11.9324 23.9472 12.8498 23.9472C12.8623 23.9472 12.8746 23.9471 12.887 23.947C13.8212 23.9375 14.6983 23.5712 15.3566 22.9156L15.4001 22.8721C16.0558 22.2136 16.4221 21.3366 16.4316 20.4024C16.441 19.4713 16.0953 18.5856 15.458 17.9083C14.1301 16.4972 12.7415 15.1086 11.3306 13.7809C10.6534 13.1436 9.76902 12.7981 8.83647 12.8073C7.90232 12.8168 7.02522 13.1831 6.36686 13.8387L6.32343 13.8822ZM14.6942 22.1694L14.6538 22.2097C13.6842 23.1752 12.0791 23.1923 11.0755 22.248C10.4974 21.704 9.92355 21.1493 9.35577 20.5874L13.0719 16.8713C13.6338 17.4391 14.1885 18.0129 14.7325 18.5909C15.6769 19.5946 15.6597 21.1998 14.6942 22.1694ZM7.06965 14.5447C8.03932 13.5791 9.64451 13.5622 10.648 14.5064C11.226 15.0503 11.7998 15.605 12.3676 16.1669L8.65146 19.883C8.08953 19.3152 7.53483 18.7414 6.99096 18.1634C6.04658 17.1598 6.06378 15.5546 7.02934 14.5851L7.06965 14.5447Z" fill="black"/>
</g>
<defs>
<clipPath id="clip0_9057_259">
<rect width="34" height="34" fill="white"/>
</clipPath>
</defs>
</svg>
