<svg width="50" height="50" viewBox="0 0 50 50" fill="none" xmlns="http://www.w3.org/2000/svg">
<path d="M42.972 1.56128C42.3916 1.56114 41.8169 1.6753 41.2806 1.8973C40.7443 2.11931 40.257 2.44475 39.8465 2.85509C39.436 3.26544 39.1104 3.75265 38.8882 4.28885C38.666 4.82505 38.5516 5.39982 38.5516 5.98023C38.5535 6.59043 38.6819 7.19356 38.9285 7.75172C34.8876 11.1156 31.3582 14.041 27.6339 17.0778C26.6903 17.7782 27.7662 18.8889 28.3587 18.4665C31.9925 15.5155 36.3175 11.9584 39.8196 9.07617C40.2308 9.49499 40.7214 9.82772 41.2627 10.0549C41.804 10.282 42.385 10.399 42.972 10.3991C44.144 10.399 45.2679 9.93342 46.0966 9.10474C46.9252 8.27605 47.3909 7.15217 47.391 5.98023C47.3909 4.80829 46.9252 3.68432 46.0966 2.85563C45.2679 2.02695 44.144 1.5614 42.972 1.56128Z" fill="#55A1FF"/>
<path d="M9.91388 13.4478C9.13461 13.4271 8.79366 14.6402 9.53393 14.9278C13.3576 16.428 17.1455 17.9306 20.5935 19.2904C20.5857 19.3878 20.5811 19.4855 20.5798 19.5832C20.5799 20.7552 21.0455 21.8792 21.8742 22.7078C22.7029 23.5365 23.8268 24.0021 24.9987 24.0022C26.1707 24.0021 27.2946 23.5365 28.1232 22.7078C28.9519 21.8792 29.4175 20.7552 29.4177 19.5832C29.4175 18.4113 28.9519 17.2874 28.1232 16.4587C27.2946 15.6301 26.1707 15.1644 24.9987 15.1643C24.1465 15.165 23.3127 15.4122 22.5977 15.876C21.8827 16.3397 21.317 17.0003 20.9689 17.7781C17.504 16.4337 13.6074 14.8768 10.2725 13.5378C10.1451 13.4784 10.0252 13.4507 9.91388 13.4478Z" fill="#EF6356"/>
<path d="M3.90497 23.3096H10.2227C11.5211 23.3096 12.5664 24.3549 12.5664 25.6534V46.0925C12.5664 47.3909 11.5211 48.4362 10.2227 48.4362H3.90497C2.60653 48.4362 1.56122 47.3909 1.56122 46.0925V25.6534C1.56122 24.3549 2.60653 23.3096 3.90497 23.3096Z" fill="#FFC861"/>
<path d="M21.8398 30.0986H28.1576C29.456 30.0986 30.5013 31.144 30.5013 32.4424V46.0925C30.5013 47.391 29.456 48.4362 28.1576 48.4362H21.8398C20.5414 48.4362 19.4961 47.391 19.4961 46.0925V32.4424C19.4961 31.144 20.5414 30.0986 21.8398 30.0986Z" fill="#EF6356"/>
<path d="M39.8127 14.7124H46.1305C47.4289 14.7124 48.4742 15.7577 48.4742 17.0561V46.0925C48.4742 47.3909 47.4289 48.4362 46.1305 48.4362H39.8127C38.5143 48.4362 37.469 47.3909 37.469 46.0925V17.0561C37.469 15.7577 38.5143 14.7124 39.8127 14.7124Z" fill="#55A1FF"/>
<path d="M11.4832 13.0293C11.4832 13.6096 11.3689 14.1844 11.1468 14.7206C10.9247 15.2567 10.5992 15.7439 10.1888 16.1543C9.77845 16.5647 9.29125 16.8902 8.75506 17.1123C8.21888 17.3344 7.64419 17.4487 7.06383 17.4487C6.48346 17.4487 5.90878 17.3344 5.37259 17.1123C4.8364 16.8902 4.34921 16.5647 3.93883 16.1543C3.52844 15.7439 3.20291 15.2567 2.98082 14.7206C2.75872 14.1844 2.64441 13.6096 2.64441 13.0293C2.64441 12.4489 2.75872 11.8743 2.98082 11.3381C3.20291 10.8019 3.52844 10.3147 3.93883 9.90431C4.34921 9.49393 4.8364 9.16834 5.37259 8.94625C5.90878 8.72415 6.48346 8.60986 7.06383 8.60986C7.64419 8.60986 8.21888 8.72415 8.75506 8.94625C9.29125 9.16834 9.77845 9.49393 10.1888 9.90431C10.5992 10.3147 10.9247 10.8019 11.1468 11.3381C11.3689 11.8743 11.4832 12.4489 11.4832 13.0293Z" fill="#FFC861"/>
<path d="M37.53 45.9694V46.1665C37.53 47.467 38.577 48.5139 39.8775 48.5139H45.1699C45.3564 48.2816 45.4726 48.0008 45.505 47.7047C45.5375 47.4085 45.4847 47.1093 45.3529 46.8421C45.2212 46.5749 45.0159 46.3508 44.7612 46.1962C44.5065 46.0416 44.213 45.9629 43.9152 45.9694H37.53Z" fill="#488BFF"/>
<path d="M19.5284 45.9692V46.1664C19.5284 46.8166 19.7903 47.4033 20.2146 47.8276C20.6389 48.2519 21.2256 48.5138 21.8758 48.5138H28.2029C28.8531 48.5138 29.4399 48.2519 29.8642 47.8276C30.2885 47.4033 30.5504 46.8166 30.5504 46.1664V45.9692H19.5284Z" fill="#D85750"/>
<path d="M6.50896 48.5141H10.2395C10.8897 48.5141 11.4764 48.2522 11.9007 47.8279C12.325 47.4036 12.5869 46.8169 12.5869 46.1666V45.9695H7.727C7.43226 45.9701 7.14367 46.0539 6.89446 46.2112C6.64524 46.3686 6.44551 46.5931 6.31825 46.859C6.19099 47.1248 6.14138 47.4212 6.17512 47.714C6.20885 48.0068 6.32457 48.2841 6.50896 48.5141Z" fill="#FFAB61"/>
</svg>
