<svg width="34" height="34" viewBox="0 0 34 34" fill="none" xmlns="http://www.w3.org/2000/svg">
<g clip-path="url(#clip0_9057_169)">
<path d="M10.3036 6.69291H8.12756V2.29775C8.12756 1.72586 8.59121 1.26221 9.1631 1.26221H9.26809C9.83998 1.26221 10.3036 1.72586 10.3036 2.29775L10.3036 6.69291Z" fill="#ACA6D6"/>
<path d="M9.26804 1.26221H9.16305C8.95739 1.26221 8.76627 1.3229 8.6051 1.4263C8.89204 1.61037 9.0827 1.93152 9.0827 2.29775V6.69291H10.3035V2.29775C10.3036 1.72586 9.83993 1.26221 9.26804 1.26221Z" fill="#978ECB"/>
<path d="M19.3289 32.7399H4.50012V8.03888C4.50012 7.34646 4.94232 6.73134 5.59861 6.51074L19.3289 1.89551V32.7399Z" fill="#C8EFFE"/>
<path d="M17.8977 2.37655V32.7399H19.329V1.89551L17.8977 2.37655Z" fill="#99E6FC"/>
<path d="M29.6417 17.1092V32.7399H19.3289V16.0049H28.5374C29.1477 16.0049 29.6417 16.4989 29.6417 17.1092Z" fill="#F5FCFF"/>
<path d="M28.5374 16.0049H27.1061C27.7162 16.0049 28.2108 16.4995 28.2108 17.1096V32.7402H29.6421V17.1097C29.6421 16.4995 29.1475 16.0049 28.5374 16.0049Z" fill="#DDF4FE"/>
<path d="M19.329 32.7401H32.7531C33.1667 32.7401 33.502 32.4048 33.502 31.9912V29.6416H19.329V32.7401Z" fill="#B6C4CF"/>
<path d="M29.6417 25.8546V29.6418H26.4011V28.6211C26.4011 27.0898 27.6429 25.8486 29.1742 25.8486H29.4551C29.5176 25.8486 29.58 25.8506 29.6417 25.8546Z" fill="#DDF4FE"/>
<path d="M32.0706 29.6416V31.9912C32.0706 32.4048 31.7354 32.7401 31.3218 32.7401H32.7531C33.1667 32.7401 33.502 32.4048 33.502 31.9912V29.6416H32.0706Z" fill="#9FACBA"/>
<path d="M30.4478 25.8481H30.729C32.2604 25.8481 33.502 27.0897 33.502 28.6211V29.6417H27.6748V28.6211C27.6748 27.0896 28.9163 25.8481 30.4478 25.8481Z" fill="#BBEC6C"/>
<path d="M30.7289 25.8481H30.4478C30.2505 25.8481 30.0583 25.8691 29.8727 25.9082C31.1282 26.1731 32.0706 27.2869 32.0706 28.6211V29.6417H33.5019V28.6211C33.5019 27.0896 32.2604 25.8481 30.7289 25.8481Z" fill="#A2E62E"/>
<path d="M1.24691 32.74H4.50015V29.6416H0.498047V31.9912C0.498047 32.4047 0.833332 32.74 1.24691 32.74Z" fill="#B6C4CF"/>
<path d="M3.06885 29.6416H4.50017V32.74H3.06885V29.6416Z" fill="#9FACBA"/>
<path d="M4.10855 25.8481H4.50015V29.6417H0.498047V29.4587C0.498047 27.4646 2.11451 25.8481 4.10855 25.8481Z" fill="#BBEC6C"/>
<path d="M4.1085 25.8481C3.74699 25.8481 3.39816 25.9019 3.06885 26.0008V29.6417H4.50017V25.8481H4.1085Z" fill="#A2E62E"/>
<path d="M19.329 1.89551L23.9938 6.40469C24.3081 6.70843 24.4856 7.12679 24.4856 7.56388V16.0046H19.329V1.89551Z" fill="#60B7FF"/>
<path d="M23.9938 6.40469L19.329 1.89551V3.27902L22.5626 6.40462C22.8768 6.70837 23.0543 7.12673 23.0543 7.56381V16.0045H24.4856V7.56388C24.4855 7.12679 24.3081 6.7085 23.9938 6.40469Z" fill="#26A6FE"/>
<path d="M14.0301 32.7402H8.12756V28.509C8.12756 28.181 8.34604 27.8932 8.662 27.805L13.2976 26.5109C13.6656 26.4081 14.0301 26.6848 14.0301 27.0669V32.7402Z" fill="#60B7FF"/>
<path d="M13.2976 26.5109L12.4937 26.7353C12.5592 26.8282 12.5989 26.9417 12.5989 27.0669V32.7402H14.0302V27.0669C14.0302 26.6848 13.6657 26.4081 13.2976 26.5109Z" fill="#26A6FE"/>
<path d="M26.8924 20.1132H22.0082C21.8193 20.1132 21.6663 19.9601 21.6663 19.7712V18.5724C21.6663 18.3835 21.8193 18.2305 22.0082 18.2305H26.8924C27.0813 18.2305 27.2344 18.3835 27.2344 18.5724V19.7712C27.2344 19.9601 27.0813 20.1132 26.8924 20.1132Z" fill="#C8EFFE"/>
<path d="M26.8924 18.2305H25.4611C25.6499 18.2305 25.803 18.3835 25.803 18.5724V19.7712C25.803 19.96 25.6499 20.1131 25.4611 20.1131H26.8924C27.0812 20.1131 27.2343 19.96 27.2343 19.7712V18.5724C27.2343 18.3835 27.0812 18.2305 26.8924 18.2305Z" fill="#99E6FC"/>
<path d="M26.8924 23.9003H22.0082C21.8193 23.9003 21.6663 23.7472 21.6663 23.5583V22.3595C21.6663 22.1706 21.8193 22.0176 22.0082 22.0176H26.8924C27.0813 22.0176 27.2344 22.1706 27.2344 22.3595V23.5583C27.2344 23.7472 27.0813 23.9003 26.8924 23.9003Z" fill="#C8EFFE"/>
<path d="M26.8924 22.0176H25.4611C25.6499 22.0176 25.803 22.1706 25.803 22.3595V23.5583C25.803 23.7471 25.6499 23.9002 25.4611 23.9002H26.8924C27.0812 23.9002 27.2343 23.7471 27.2343 23.5583V22.3595C27.2343 22.1706 27.0812 22.0176 26.8924 22.0176Z" fill="#99E6FC"/>
<path d="M23.6237 27.7259H22.0082C21.8193 27.7259 21.6663 27.5729 21.6663 27.384V26.1852C21.6663 25.9963 21.8193 25.8433 22.0082 25.8433H23.6237C23.8126 25.8433 23.9656 25.9963 23.9656 26.1852V27.384C23.9656 27.5729 23.8126 27.7259 23.6237 27.7259Z" fill="#C8EFFE"/>
<path d="M23.6237 25.8433H22.1924C22.3812 25.8433 22.5343 25.9963 22.5343 26.1852V27.384C22.5343 27.5729 22.3812 27.7259 22.1924 27.7259H23.6237C23.8126 27.7259 23.9656 27.5729 23.9656 27.384V26.1852C23.9656 25.9963 23.8126 25.8433 23.6237 25.8433Z" fill="#99E6FC"/>
<path d="M30.729 25.3502C30.4635 25.3534 30.4927 25.3405 30.1398 25.3652V17.1095C30.1398 16.226 29.421 15.5071 28.5374 15.5071H24.492C24.4898 15.5071 24.4877 15.5068 24.4855 15.5068H19.827V3.06988L23.6477 6.76306C23.8636 6.97184 23.9875 7.26377 23.9875 7.56412V13.6572C23.9875 13.9322 24.2105 14.1552 24.4855 14.1552C24.7606 14.1552 24.9836 13.9322 24.9836 13.6572V7.56412C24.9836 6.99529 24.749 6.44225 24.34 6.04687L19.675 1.53769C19.5702 1.43927 19.3692 1.35095 19.1702 1.42367L10.8016 4.23664V2.29757C10.8079 1.4503 10.0477 0.712856 9.1634 0.764254C8.31758 0.764254 7.62941 1.45209 7.62941 2.29757V5.30292L5.43993 6.0389C4.57991 6.32804 4.00204 7.13182 4.00204 8.03919V25.353C1.78573 25.4097 0 27.229 0 29.4587V31.9913C0 32.6789 0.55934 33.2382 1.24684 33.2382H32.7531C33.4407 33.2382 33.9999 32.6788 33.9999 31.9913V28.6212C34 26.8176 32.5326 25.3502 30.729 25.3502ZM30.729 26.3463C31.9834 26.3463 33.0039 27.3669 33.0039 28.6213V29.1438H28.1729V28.6213C28.174 27.2599 29.3702 26.2284 30.729 26.3463ZM29.1437 17.1095V25.6222C27.9873 26.127 27.1768 27.2809 27.1768 28.6212V29.1437H19.827V16.5032H28.5374C28.8717 16.5032 29.1437 16.7752 29.1437 17.1095ZM8.62551 2.29757C8.62551 2.00134 8.86683 1.76035 9.1634 1.76035C9.42975 1.72124 9.78841 1.93008 9.80555 2.29757V4.57146L8.62551 4.9681V2.29757ZM4.00211 26.3481V29.1438H1.0119C1.16682 27.6096 2.44043 26.4009 4.00211 26.3481ZM0.996094 31.9914V30.1399H4.00211V32.2421H1.24691C1.10859 32.2421 0.996094 32.1297 0.996094 31.9914ZM4.9982 8.03919C4.9982 7.56014 5.30327 7.1358 5.75736 6.98313L18.831 2.58863V5.30232L7.96875 8.95354C7.70804 9.04113 7.56772 9.32355 7.65538 9.58433C7.7253 9.79245 7.91934 9.9238 8.12739 9.9238C8.17999 9.9238 8.23351 9.91543 8.28617 9.8977L18.831 6.35327V8.887L7.96875 12.5381C7.70804 12.6258 7.56772 12.9082 7.65538 13.1689C7.7253 13.3771 7.91934 13.5084 8.12739 13.5084C8.17999 13.5084 8.23351 13.5 8.28617 13.4823L18.831 9.93781V12.4715L7.96875 16.1228C7.70804 16.2103 7.56772 16.4928 7.65538 16.7536C7.7253 16.9617 7.91934 17.093 8.12739 17.093C8.17999 17.093 8.23351 17.0847 8.28617 17.0669L18.831 13.5225V16.0033C18.831 16.004 18.8309 16.0046 18.8309 16.0052V16.0563L7.96875 19.7074C7.70804 19.795 7.56772 20.0774 7.65538 20.3382C7.7253 20.5463 7.91934 20.6776 8.12739 20.6776C8.17999 20.6776 8.23351 20.6693 8.28617 20.6515L18.8308 17.107V19.6408L12.0483 21.9207C11.7876 22.0083 11.6473 22.2907 11.7349 22.5515C11.8048 22.7596 11.9989 22.8909 12.2069 22.8909C12.2595 22.8909 12.313 22.8826 12.3657 22.8649L18.8308 20.6916V32.2421H14.5282V27.0668C14.5282 26.7276 14.3732 26.4154 14.103 26.2103C13.8328 26.0053 13.4904 25.9399 13.1637 26.0312L8.52809 27.3253C7.99903 27.473 7.62955 27.9597 7.62955 28.5091V32.2421H4.9982V8.03919ZM8.62564 28.5091C8.62564 28.405 8.6957 28.3128 8.79591 28.2847L10.5808 27.7864V32.2421H8.62558L8.62564 28.5091ZM11.5769 32.2421V27.5083L13.4315 26.9905C13.4566 26.9835 13.4799 26.9879 13.5007 27.0038C13.5215 27.0196 13.5321 27.0408 13.5321 27.0669V32.2421H11.5769ZM19.827 32.2421V30.1399H27.1768V32.2421H19.827ZM33.0039 31.9914C33.0039 32.1297 32.8914 32.2421 32.7532 32.2421H28.1729V30.1399H33.0039V31.9914Z" fill="black"/>
<path d="M8.12739 24.262C8.17998 24.262 8.23351 24.2537 8.28617 24.2359L10.1353 23.6144C10.396 23.5268 10.5363 23.2443 10.4487 22.9836C10.361 22.7228 10.0786 22.5824 9.81789 22.6702L7.96874 23.2918C7.70803 23.3794 7.56772 23.6618 7.65537 23.9226C7.7253 24.1306 7.91934 24.262 8.12739 24.262Z" fill="black"/>
<path d="M22.0081 20.6111H26.8924C27.3555 20.6111 27.7323 20.2343 27.7323 19.7712V18.5724C27.7323 18.1092 27.3555 17.7324 26.8924 17.7324H22.0081C21.5449 17.7324 21.1682 18.1092 21.1682 18.5724V19.7712C21.1682 20.2343 21.545 20.6111 22.0081 20.6111ZM22.1643 18.7285H26.7362V19.615H22.1643V18.7285Z" fill="black"/>
<path d="M22.0081 24.3982H26.8924C27.3555 24.3982 27.7323 24.0215 27.7323 23.5583V22.3594C27.7323 21.8963 27.3555 21.5195 26.8924 21.5195H22.0081C21.5449 21.5195 21.1682 21.8963 21.1682 22.3594V23.5583C21.1682 24.0215 21.545 24.3982 22.0081 24.3982ZM22.1643 22.5156H26.7362V23.4021H22.1643V22.5156Z" fill="black"/>
<path d="M22.0081 28.2239H23.6236C24.0868 28.2239 24.4636 27.8471 24.4636 27.384V26.1852C24.4636 25.722 24.0868 25.3452 23.6236 25.3452H22.0081C21.5449 25.3452 21.1682 25.722 21.1682 26.1852V27.384C21.1682 27.8471 21.545 28.2239 22.0081 28.2239ZM22.1643 26.3413H23.4675V27.2278H22.1643V26.3413Z" fill="black"/>
</g>
<defs>
<clipPath id="clip0_9057_169">
<rect width="34" height="34" fill="white"/>
</clipPath>
</defs>
</svg>
