<svg width="34" height="34" viewBox="0 0 34 34" fill="none" xmlns="http://www.w3.org/2000/svg">
<path d="M8.445 8.16434L7.86707 6.42948C7.65607 5.79453 7.25038 5.24221 6.7076 4.85097C6.16483 4.45972 5.51259 4.24945 4.8435 4.25H3.1875C2.90571 4.25 2.63546 4.36194 2.4362 4.5612C2.23694 4.76046 2.125 5.03071 2.125 5.3125C2.125 5.59429 2.23694 5.86454 2.4362 6.0638C2.63546 6.26306 2.90571 6.375 3.1875 6.375H4.8435C5.06656 6.37493 5.28399 6.44504 5.46499 6.57539C5.646 6.70574 5.78141 6.88974 5.85205 7.10132L6.43 8.83567C6.52426 9.09616 6.71656 9.30953 6.96589 9.43028C7.21522 9.55102 7.50185 9.56959 7.76468 9.48203C8.0275 9.39446 8.24572 9.20769 8.37281 8.96154C8.49991 8.71538 8.52581 8.42932 8.445 8.16434Z" fill="#212121"/>
<path d="M30.7367 8.56481C30.4376 8.21123 30.0649 7.92718 29.6446 7.73247C29.2244 7.53777 28.7667 7.43711 28.3036 7.4375H7.43749C7.27648 7.43887 7.11786 7.47658 6.97346 7.54782C6.82906 7.61906 6.70262 7.72199 6.60356 7.84893C6.5045 7.97587 6.43539 8.12354 6.40138 8.28092C6.36737 8.4383 6.36935 8.60133 6.40715 8.75785L9.19207 19.898C9.36365 20.588 9.76138 21.2007 10.3218 21.6384C10.8822 22.076 11.5731 22.3133 12.2841 22.3125H26.8873C27.6424 22.3148 28.3736 22.0479 28.9498 21.5598C29.5259 21.0716 29.9093 20.3942 30.0312 19.649L31.4486 11.149C31.5252 10.6924 31.5012 10.2246 31.3782 9.77823C31.2553 9.33188 31.0364 8.91776 30.7367 8.56481Z" fill="#FFA000"/>
<path d="M23.375 29.75C25.1354 29.75 26.5625 28.3229 26.5625 26.5625C26.5625 24.8021 25.1354 23.375 23.375 23.375C21.6146 23.375 20.1875 24.8021 20.1875 26.5625C20.1875 28.3229 21.6146 29.75 23.375 29.75Z" fill="#212121"/>
<path d="M14.875 29.75C16.6354 29.75 18.0625 28.3229 18.0625 26.5625C18.0625 24.8021 16.6354 23.375 14.875 23.375C13.1146 23.375 11.6875 24.8021 11.6875 26.5625C11.6875 28.3229 13.1146 29.75 14.875 29.75Z" fill="#212121"/>
<path d="M14.875 18.0625C14.7355 18.0625 14.5973 18.0351 14.4684 17.9817C14.3394 17.9283 14.2223 17.8501 14.1236 17.7514C14.0249 17.6527 13.9467 17.5356 13.8933 17.4066C13.8399 17.2777 13.8125 17.1395 13.8125 17V12.75C13.8125 12.4682 13.9244 12.198 14.1237 11.9987C14.323 11.7994 14.5932 11.6875 14.875 11.6875C15.1568 11.6875 15.427 11.7994 15.6263 11.9987C15.8256 12.198 15.9375 12.4682 15.9375 12.75V17C15.9375 17.1395 15.9101 17.2777 15.8567 17.4066C15.8033 17.5356 15.7251 17.6527 15.6264 17.7514C15.5277 17.8501 15.4106 17.9283 15.2816 17.9817C15.1527 18.0351 15.0145 18.0625 14.875 18.0625Z" fill="#EEEEEE"/>
<path d="M19.125 18.0625C18.9855 18.0625 18.8473 18.0351 18.7184 17.9817C18.5894 17.9283 18.4723 17.8501 18.3736 17.7514C18.2749 17.6527 18.1967 17.5356 18.1433 17.4066C18.0899 17.2777 18.0625 17.1395 18.0625 17V12.75C18.0625 12.4682 18.1744 12.198 18.3737 11.9987C18.573 11.7994 18.8432 11.6875 19.125 11.6875C19.4068 11.6875 19.677 11.7994 19.8763 11.9987C20.0756 12.198 20.1875 12.4682 20.1875 12.75V17C20.1875 17.1395 20.1601 17.2777 20.1067 17.4066C20.0533 17.5356 19.9751 17.6527 19.8764 17.7514C19.7777 17.8501 19.6606 17.9283 19.5316 17.9817C19.4027 18.0351 19.2645 18.0625 19.125 18.0625Z" fill="#EEEEEE"/>
<path d="M23.375 18.0625C23.2355 18.0625 23.0973 18.0351 22.9684 17.9817C22.8394 17.9283 22.7223 17.8501 22.6236 17.7514C22.5249 17.6527 22.4467 17.5356 22.3933 17.4066C22.3399 17.2777 22.3125 17.1395 22.3125 17V12.75C22.3125 12.4682 22.4244 12.198 22.6237 11.9987C22.823 11.7994 23.0932 11.6875 23.375 11.6875C23.6568 11.6875 23.927 11.7994 24.1263 11.9987C24.3256 12.198 24.4375 12.4682 24.4375 12.75V17C24.4375 17.1395 24.4101 17.2777 24.3567 17.4066C24.3033 17.5356 24.2251 17.6527 24.1264 17.7514C24.0277 17.8501 23.9106 17.9283 23.7816 17.9817C23.6527 18.0351 23.5145 18.0625 23.375 18.0625Z" fill="#EEEEEE"/>
</svg>
