<svg width="46" height="46" viewBox="0 0 46 46" fill="none" xmlns="http://www.w3.org/2000/svg">
<g clip-path="url(#clip0_9016_96)">
<path d="M40.0428 35.9638C38.6206 34.5739 37.5906 33.1092 36.8447 31.7144C36.5813 31.2217 36.7439 30.6136 37.2067 30.3006C41.2222 27.5846 43.9274 23.0502 44.1033 17.8321C44.3957 9.16213 37.6564 1.94055 28.9869 1.63334C23.0763 1.42384 17.8148 4.51432 14.9743 9.25144L31.1086 33.4174C34.0276 35.5644 37.3335 36.5751 39.4641 37.0364C40.0848 37.1709 40.4971 36.4077 40.0428 35.9638Z" fill="#DFEBFA"/>
<path d="M15.6092 10.2023L31.1087 33.4175C31.8792 33.9842 32.6768 34.4712 33.4727 34.8904C35.6811 32.2945 37.0632 28.9637 37.1933 25.2931C37.5001 16.6384 30.7327 9.37366 22.078 9.06681C19.7878 8.98563 17.598 9.39566 15.6092 10.2023Z" fill="#B1DBFC"/>
<path d="M18.6844 8.94644C10.015 8.63916 2.78124 15.3654 2.45909 24.0343C2.26522 29.2517 4.64247 33.9664 8.45562 36.9598C8.8951 37.3048 9.01424 37.9229 8.71658 38.3957C7.87385 39.7341 6.74278 41.1223 5.2257 42.408C4.74113 42.8186 5.09837 43.609 5.72717 43.5189C7.94705 43.2007 11.4493 42.3908 14.5817 40.3308C14.9032 40.1193 15.2941 40.0452 15.6743 40.1052C16.2955 40.2032 16.9292 40.2652 17.5735 40.2881C26.2282 40.5948 33.493 33.8274 33.7997 25.1727C34.1064 16.518 27.3391 9.2533 18.6844 8.94644Z" fill="#FEE55A"/>
<path d="M8.6191 42.5283C10.1362 41.2426 11.2672 39.8545 12.1101 38.516C12.4077 38.0432 12.2886 37.4251 11.8491 37.0801C8.03595 34.0866 5.65862 29.372 5.85258 24.1546C6.1534 16.0605 12.4799 9.66075 20.3744 9.09784C19.8203 9.01837 19.2567 8.96685 18.6846 8.94657C10.015 8.63919 2.78124 15.3654 2.4591 24.0344C2.26523 29.2518 4.64247 33.9664 8.45562 36.9598C8.8951 37.3048 9.01425 37.9229 8.71658 38.3957C7.87386 39.7341 6.74279 41.1223 5.2257 42.408C4.74113 42.8187 5.09838 43.6091 5.72717 43.519C6.48772 43.41 7.39894 43.2432 8.39409 42.9882C8.39786 42.8235 8.46702 42.6573 8.6191 42.5283Z" fill="#FFD301"/>
<path d="M18.2897 40.2966C18.6225 40.2934 18.953 40.2798 19.2808 40.256C19.2098 40.2458 19.1383 40.2368 19.0676 40.2257C18.8044 40.1841 18.5366 40.2085 18.2897 40.2966Z" fill="#FFD301"/>
<path d="M26.651 27.6139L9.41591 27.003C8.75332 26.9796 8.27498 27.6388 8.50993 28.2589C9.9334 32.0151 13.4985 34.7445 17.7645 34.8957C22.0306 35.047 25.7799 32.5768 27.4658 28.9308C27.744 28.329 27.3137 27.6374 26.651 27.6139Z" fill="#DFEBFA"/>
<path d="M12.1957 28.3896C11.9608 27.7695 12.439 27.1102 13.1017 27.1337L9.41591 27.003C8.75332 26.9796 8.27498 27.6388 8.50993 28.2589C9.9334 32.0151 13.4985 34.7445 17.7645 34.8957C18.3938 34.9181 19.0114 34.8819 19.6133 34.7948C16.1797 34.0462 13.4092 31.5917 12.1957 28.3896Z" fill="#B1DBFC"/>
<path d="M7.89859 28.471C11.3233 37.5076 23.9803 37.9686 28.0418 29.185C28.5135 28.1648 27.7858 26.9936 26.665 26.9539L9.42997 26.343C8.30663 26.3031 7.50108 27.422 7.89859 28.471ZM9.38433 27.6307L26.6194 28.2416C26.82 28.2487 26.9582 28.4582 26.8722 28.6442C23.2944 36.3819 12.1288 35.997 9.10357 28.0143C9.03087 27.8224 9.18413 27.6236 9.38433 27.6307Z" fill="black"/>
<path d="M10.296 20.6222C10.3413 19.3457 11.4167 18.344 12.6932 18.3892C13.9697 18.4345 14.9714 19.5098 14.9262 20.7863C14.9136 21.1419 15.1916 21.4404 15.5472 21.453C15.9029 21.4656 16.2013 21.1875 16.2139 20.8319C16.2844 18.8454 14.7254 17.1719 12.7389 17.1015C10.7522 17.031 9.0787 18.59 9.00829 20.5765C8.99568 20.9321 9.27366 21.2306 9.62934 21.2432C9.98502 21.2558 10.2834 20.9779 10.296 20.6222Z" fill="black"/>
<path d="M21.5761 21.0221C21.6213 19.7456 22.6967 18.7439 23.9732 18.7891C25.2497 18.8344 26.2515 19.9097 26.2062 21.1862C26.1936 21.5418 26.4716 21.8403 26.8273 21.8529C27.1829 21.8655 27.4814 21.5874 27.494 21.2318C27.5644 19.2453 26.0055 17.5718 24.0189 17.5014C22.0322 17.4309 20.3587 18.9899 20.2883 20.9764C20.2757 21.332 20.5537 21.6305 20.9094 21.6431C21.265 21.6557 21.5635 21.3778 21.5761 21.0221Z" fill="black"/>
<path d="M20.978 4.22414C21.2869 4.04762 21.3943 3.65413 21.2177 3.34513C21.0413 3.03621 20.6479 2.92892 20.3387 3.10535C17.9857 4.44979 15.9959 6.3667 14.5655 8.65869C7.61223 10.1868 2.09401 16.2564 1.8065 23.9942C1.61125 29.2456 3.94495 34.2285 8.04896 37.4504C8.23303 37.5949 8.28195 37.8467 8.16255 38.0362C7.2536 39.4799 6.1223 40.78 4.80036 41.9003C3.82492 42.7269 4.54234 44.3223 5.8097 44.1405C8.21205 43.7962 11.7438 42.9464 14.9269 40.853C15.1074 40.7343 15.3338 40.6892 15.5651 40.7256C18.5069 41.1896 21.5362 40.858 24.3518 39.6935C24.6806 39.5575 24.8369 39.1807 24.701 38.8519C24.565 38.5231 24.1883 38.3668 23.8593 38.5027C21.2486 39.5824 18.4561 39.8771 15.7658 39.4527C15.2171 39.3663 14.6678 39.4811 14.2188 39.7764C11.2525 41.7273 7.93958 42.5296 5.66144 42.8596C7.072 41.6594 8.28012 40.2678 9.253 38.7228C9.72518 37.9731 9.54959 36.9903 8.84467 36.4368C5.06564 33.4702 2.91606 28.8366 3.09417 24.042C3.40152 15.7711 10.3812 9.28091 18.6529 9.57418C26.9387 9.86787 33.4407 16.8478 33.147 25.1337C32.9753 29.9788 30.4552 34.4707 26.4058 37.1496C26.1091 37.3459 26.0277 37.7457 26.224 38.0424C26.4203 38.3392 26.8199 38.4206 27.1168 38.2243C28.7334 37.1548 30.1245 35.8183 31.2478 34.2951C34.0828 36.229 37.1712 37.185 39.3188 37.6499C40.5691 37.9205 41.3996 36.3812 40.4842 35.4867C39.2447 34.2755 38.2084 32.8986 37.404 31.3943C37.2983 31.1969 37.365 30.9491 37.5588 30.818C41.8699 27.9021 44.5608 23.1049 44.7384 17.8375C45.1253 6.36684 33.9513 -1.80971 23.2054 1.81711C22.8683 1.93083 22.6872 2.29644 22.801 2.63356C22.9149 2.97068 23.2806 3.15178 23.6175 3.03796C33.5787 -0.323809 43.8024 7.36133 43.4505 17.794C43.2888 22.5891 40.8165 27.0589 36.8369 29.7506C36.0944 30.2527 35.8498 31.2205 36.2677 32.0018C37.1276 33.6099 38.2327 35.082 39.5573 36.383C37.5247 35.9399 34.6208 35.0372 31.9709 33.2285C33.4612 30.8351 34.3324 28.0653 34.4347 25.1792C34.7838 15.3286 26.3183 7.28967 16.3145 8.3723C17.5587 6.68744 19.1498 5.26863 20.978 4.22414Z" fill="black"/>
</g>
<defs>
<clipPath id="clip0_9016_96">
<rect width="44" height="44" fill="white" transform="translate(2) rotate(2.03)"/>
</clipPath>
</defs>
</svg>
