<svg width="50" height="50" viewBox="0 0 50 50" fill="none" xmlns="http://www.w3.org/2000/svg">
<path d="M41.4214 4.91424V35.0499C41.4214 36.4071 40.3143 37.5142 38.9357 37.5142H4.60714C3.25 37.5142 2.14285 36.4071 2.14285 35.0499V4.91424C2.14285 3.55709 3.25 2.44995 4.60714 2.44995H38.9428C40.3143 2.44995 41.4214 3.56424 41.4214 4.91424Z" fill="#F9A41A"/>
<path d="M38.9429 37.8713H4.60714C3.04999 37.8713 1.78571 36.607 1.78571 35.0499V4.9142C1.78571 3.35706 3.04999 2.09277 4.60714 2.09277H38.9429C40.5071 2.09277 41.7857 3.35706 41.7857 4.9142V35.0499C41.7786 36.607 40.5071 37.8713 38.9429 37.8713ZM4.60714 2.80706C3.44285 2.80706 2.49999 3.74992 2.49999 4.9142V35.0499C2.49999 36.2142 3.44285 37.157 4.60714 37.157H38.9429C40.1143 37.157 41.0714 36.2142 41.0714 35.0499V4.9142C41.0714 3.74992 40.1214 2.80706 38.9429 2.80706H4.60714Z" fill="black"/>
<path d="M43.1714 6.66424V36.7999C43.1714 38.1571 42.0643 39.2642 40.6857 39.2642H6.35714C5 39.2642 3.89285 38.1571 3.89285 36.7999V6.66424C3.89285 5.30709 5 4.19995 6.35714 4.19995H40.6928C42.0643 4.19995 43.1714 5.30709 43.1714 6.66424Z" fill="#FBE063"/>
<path d="M40.6857 39.6142H6.35714C4.79999 39.6142 3.53571 38.3499 3.53571 36.7928V6.6642C3.53571 5.10706 4.79999 3.84277 6.35714 3.84277H40.6929C42.2571 3.84277 43.5357 5.10706 43.5357 6.6642V36.7999C43.5286 38.3499 42.2571 39.6142 40.6857 39.6142ZM6.35714 4.55706C5.19285 4.55706 4.24999 5.49992 4.24999 6.6642V36.7999C4.24999 37.9642 5.19285 38.9071 6.35714 38.9071H40.6929C41.8643 38.9071 42.8214 37.9642 42.8214 36.7999V6.6642C42.8214 5.49992 41.8714 4.55706 40.6929 4.55706H6.35714Z" fill="black"/>
<path d="M27.6714 4.19995V12.7571L23.5285 10.1785L19.3928 12.7571V4.19995H27.6714Z" fill="#495E66"/>
<path d="M27.6714 13.1142C27.6071 13.1142 27.5428 13.0928 27.4857 13.0571L23.5357 10.5999L19.5857 13.0571C19.4786 13.1285 19.3357 13.1285 19.2214 13.0642C19.1071 12.9999 19.0357 12.8785 19.0357 12.7499V4.19992C19.0357 3.99992 19.1928 3.84277 19.3928 3.84277H27.6714C27.8714 3.84277 28.0286 3.99992 28.0286 4.19992V12.7571C28.0286 12.8856 27.9571 13.0071 27.8428 13.0713C27.7857 13.0999 27.7286 13.1142 27.6714 13.1142ZM23.5286 9.82134C23.5928 9.82134 23.6571 9.84277 23.7143 9.87849L27.3071 12.1142V4.55706H19.75V12.1142L23.3428 9.87849C23.4 9.84277 23.4643 9.82134 23.5286 9.82134Z" fill="black"/>
<path d="M17.1 33.3928H7.45715C7.25715 33.3928 7.10001 33.2356 7.10001 33.0356C7.10001 32.8356 7.25715 32.6785 7.45715 32.6785H17.1C17.3 32.6785 17.4572 32.8356 17.4572 33.0356C17.4572 33.2356 17.3 33.3928 17.1 33.3928Z" fill="black"/>
<path d="M12.4571 36.1286H7.45715C7.25715 36.1286 7.10001 35.9714 7.10001 35.7714C7.10001 35.5714 7.25715 35.4143 7.45715 35.4143H12.4571C12.6571 35.4143 12.8143 35.5714 12.8143 35.7714C12.8143 35.9714 12.6571 36.1286 12.4571 36.1286Z" fill="black"/>
<path d="M45.6928 38.2856C45.4714 39.0642 45.1642 39.807 44.7785 40.4927C44.6642 40.6999 44.6714 40.957 44.8142 41.1499L45.5142 42.0927C45.6928 42.3356 45.6642 42.6642 45.4571 42.8785L43.1928 45.1427C42.9785 45.357 42.6428 45.3785 42.4071 45.1999L41.4714 44.4999C41.2785 44.357 41.0285 44.3499 40.8142 44.4642C40.1214 44.8499 39.3785 45.157 38.6 45.3785C38.3714 45.4427 38.2 45.6285 38.1643 45.8642L37.9928 47.0285C37.95 47.3213 37.6928 47.5427 37.3928 47.5427H34.2C33.9 47.5427 33.65 47.3213 33.6 47.0285L33.4285 45.8642C33.3928 45.6285 33.2214 45.4427 32.9928 45.3785C32.2143 45.157 31.4714 44.8499 30.7857 44.4642C30.5785 44.3499 30.3214 44.357 30.1285 44.4999L29.1857 45.1999C28.9428 45.3785 28.6143 45.3499 28.4 45.1427L26.1357 42.8785C25.9214 42.6642 25.9 42.3356 26.0785 42.0927L26.7857 41.1427C26.9285 40.9499 26.9357 40.6927 26.8214 40.4856C26.4357 39.7999 26.1285 39.0642 25.9071 38.2856C25.8428 38.057 25.6571 37.8856 25.4214 37.8499L24.2571 37.6785C23.9643 37.6356 23.7428 37.3785 23.7428 37.0785V33.8856C23.7428 33.5856 23.9643 33.3356 24.2571 33.2856L25.4214 33.1142C25.6571 33.0785 25.8428 32.907 25.9071 32.6785C26.1285 31.8999 26.4357 31.1642 26.8214 30.4785C26.9357 30.2713 26.9285 30.0142 26.7857 29.8213L26.0785 28.8713C25.9 28.6285 25.9285 28.2928 26.1357 28.0856L28.4 25.8213C28.6143 25.607 28.9428 25.5856 29.1857 25.7642L30.1285 26.4642C30.3214 26.607 30.5714 26.6142 30.7857 26.4999C31.4785 26.1142 32.2143 25.807 32.9928 25.5856C33.2214 25.5213 33.3928 25.3356 33.4285 25.0999L33.6 23.9428C33.6428 23.6499 33.9 23.4285 34.2 23.4285H37.3928C37.6928 23.4285 37.9428 23.6499 37.9928 23.9428L38.1643 25.0999C38.2 25.3356 38.3714 25.5213 38.6 25.5856C39.3785 25.807 40.1214 26.1213 40.8142 26.4999C41.0214 26.6142 41.2785 26.607 41.4714 26.4642L42.4071 25.7642C42.65 25.5856 42.9857 25.607 43.1928 25.8213L45.4571 28.0856C45.6714 28.2999 45.6928 28.6285 45.5142 28.8713L44.8142 29.8142C44.6714 30.007 44.6642 30.257 44.7785 30.4713C45.1642 31.1642 45.4714 31.8999 45.6928 32.6785C45.7571 32.907 45.9428 33.0785 46.1785 33.1142L47.3428 33.2856C47.6357 33.3285 47.8571 33.5856 47.8571 33.8856V37.0785C47.8571 37.3785 47.6357 37.6285 47.3428 37.6785L46.1785 37.8499C45.9428 37.8856 45.7571 38.057 45.6928 38.2856Z" fill="#8F90FB"/>
<path d="M37.3857 47.9069H34.1928C33.7214 47.9069 33.3143 47.5569 33.2428 47.0855L33.0714 45.9212C33.0571 45.8284 32.9857 45.7498 32.8928 45.7212C32.1 45.4927 31.3285 45.1784 30.6071 44.7712C30.5214 44.7212 30.4143 44.7284 30.3357 44.7855L29.3928 45.4855C29.0143 45.7641 28.4714 45.7284 28.1428 45.3927L25.8785 43.1284C25.5428 42.7927 25.5071 42.2569 25.7857 41.8784L26.4928 40.9284C26.55 40.8498 26.5571 40.7498 26.5 40.6569C26.1 39.9427 25.7857 39.1784 25.5571 38.3784C25.5285 38.2784 25.45 38.2069 25.3571 38.1927L24.1928 38.0212C23.7143 37.9498 23.3714 37.5498 23.3714 37.0712V33.8784C23.3714 33.4069 23.7214 32.9998 24.1928 32.9284L25.35 32.7569C25.4428 32.7427 25.5214 32.6712 25.55 32.5712C25.7785 31.7712 26.0928 31.0069 26.4928 30.2927C26.5428 30.1998 26.5428 30.0998 26.4857 30.0212L25.7785 29.0712C25.5 28.6927 25.5357 28.1569 25.8714 27.8212L28.1357 25.5569C28.4714 25.2212 29.0071 25.1855 29.3857 25.4641L30.3285 26.1641C30.4071 26.2212 30.5071 26.2284 30.6 26.1784C31.3214 25.7784 32.0857 25.4569 32.8857 25.2284C32.9857 25.1998 33.0571 25.1212 33.0643 25.0284L33.2357 23.8712C33.3071 23.3998 33.7071 23.0498 34.1857 23.0498H37.3785C37.8571 23.0498 38.2571 23.3927 38.3285 23.8712L38.5 25.0284C38.5143 25.1212 38.5857 25.1998 38.6785 25.2284C39.4714 25.4569 40.2428 25.7784 40.9714 26.1784C41.0571 26.2284 41.1643 26.2212 41.2428 26.1641L42.1785 25.4641C42.5571 25.1855 43.1 25.2212 43.4285 25.5569L45.6928 27.8212C46.0285 28.1569 46.0643 28.6927 45.7857 29.0712L45.0857 30.0141C45.0285 30.0927 45.0214 30.1927 45.0714 30.2855C45.4714 31.0069 45.7928 31.7784 46.0214 32.5712C46.05 32.6712 46.1285 32.7427 46.2214 32.7498L47.3857 32.9212C47.85 32.9927 48.2071 33.3998 48.2071 33.8712V37.0641C48.2071 37.5427 47.8643 37.9427 47.3857 38.0141L46.2214 38.1855C46.1285 38.1998 46.05 38.2712 46.0214 38.3641C45.7928 39.1569 45.4785 39.9284 45.0714 40.6498C45.0214 40.7355 45.0285 40.8427 45.0857 40.9212L45.7857 41.8641C46.0643 42.2427 46.0285 42.7784 45.6928 43.1141L43.4285 45.3784C43.0928 45.7141 42.5571 45.7498 42.1785 45.4712L41.2428 44.7712C41.1643 44.7141 41.0643 44.7069 40.9714 44.7569C40.2428 45.1569 39.4714 45.4784 38.6785 45.7069C38.5785 45.7355 38.5071 45.8141 38.4928 45.9069L38.3214 47.0712C38.2643 47.5498 37.8571 47.9069 37.3857 47.9069ZM30.4714 44.0284C30.6357 44.0284 30.8 44.0712 30.95 44.1498C31.6214 44.5284 32.3428 44.8212 33.0857 45.0355C33.45 45.1427 33.7214 45.4498 33.7785 45.8141L33.95 46.9784C33.9714 47.0998 34.0714 47.1855 34.1928 47.1855H37.3857C37.5071 47.1855 37.6143 47.0927 37.6285 46.9784L37.8 45.8141C37.8571 45.4427 38.1285 45.1427 38.4928 45.0355C39.2357 44.8212 39.9571 44.5284 40.6357 44.1498C40.9643 43.9641 41.3785 43.9927 41.6785 44.2141L42.6143 44.9141C42.7143 44.9855 42.85 44.9784 42.9357 44.8927L45.2 42.6284C45.2857 42.5427 45.2928 42.4069 45.2214 42.3069L44.5214 41.3641C44.3 41.0641 44.2714 40.6569 44.4571 40.3212C44.8357 39.6498 45.1285 38.9284 45.3428 38.1855C45.45 37.8212 45.75 37.5498 46.1214 37.4927L47.2857 37.3212C47.4071 37.2998 47.4928 37.1998 47.4928 37.0784V33.8855C47.4928 33.7641 47.4 33.6569 47.2857 33.6427L46.1214 33.4712C45.75 33.4141 45.4428 33.1427 45.3428 32.7784C45.1285 32.0355 44.8357 31.3212 44.4571 30.6427C44.2714 30.3141 44.2928 29.8998 44.5214 29.5998L45.2214 28.6569C45.2928 28.5569 45.2857 28.4212 45.2 28.3355L42.9357 26.0712C42.85 25.9855 42.7143 25.9784 42.6143 26.0498L41.6785 26.7498C41.3785 26.9712 40.9714 26.9998 40.6357 26.8141C39.9571 26.4355 39.2357 26.1427 38.4928 25.9284C38.1285 25.8212 37.8571 25.5212 37.8 25.1498L37.6285 23.9927C37.6071 23.8712 37.5071 23.7855 37.3857 23.7855H34.1928C34.0714 23.7855 33.9643 23.8712 33.95 23.9927L33.7785 25.1498C33.7214 25.5212 33.45 25.8212 33.0857 25.9284C32.3428 26.1427 31.6214 26.4355 30.95 26.8141C30.6143 26.9998 30.2071 26.9784 29.9071 26.7569L28.9643 26.0569C28.8643 25.9855 28.7285 25.9927 28.6428 26.0784L26.3785 28.3427C26.2928 28.4284 26.2785 28.5641 26.3571 28.6641L27.0643 29.6141C27.2857 29.9141 27.3143 30.3284 27.1214 30.6569C26.75 31.3212 26.45 32.0355 26.2428 32.7784C26.1357 33.1427 25.8357 33.4141 25.4643 33.4712L24.3071 33.6427C24.1857 33.6569 24.1 33.7641 24.1 33.8855V37.0784C24.1 37.1998 24.1857 37.3069 24.3143 37.3212L25.4714 37.4927C25.8428 37.5498 26.15 37.8212 26.25 38.1855C26.4643 38.9284 26.7571 39.6427 27.1285 40.3069C27.3143 40.6427 27.2928 41.0498 27.0714 41.3498L26.3643 42.2998C26.2928 42.3998 26.3 42.5355 26.3857 42.6212L28.65 44.8855C28.7357 44.9712 28.8714 44.9784 28.9714 44.9069L29.9143 44.2069C30.0714 44.0927 30.2714 44.0284 30.4714 44.0284Z" fill="black"/>
<path d="M35.7929 41.6212C39.1855 41.6212 41.9357 38.8709 41.9357 35.4783C41.9357 32.0857 39.1855 29.3354 35.7929 29.3354C32.4002 29.3354 29.65 32.0857 29.65 35.4783C29.65 38.8709 32.4002 41.6212 35.7929 41.6212Z" fill="#EFEFED"/>
<path d="M35.7928 41.9783C32.2071 41.9783 29.2928 39.064 29.2928 35.4783C29.2928 31.8926 32.2071 28.9783 35.7928 28.9783C39.3786 28.9783 42.2928 31.8926 42.2928 35.4783C42.2928 39.064 39.3714 41.9783 35.7928 41.9783ZM35.7928 29.6926C32.6 29.6926 30.0071 32.2854 30.0071 35.4783C30.0071 38.6711 32.6 41.264 35.7928 41.264C38.9857 41.264 41.5786 38.6711 41.5786 35.4783C41.5786 32.2854 38.9786 29.6926 35.7928 29.6926Z" fill="black"/>
</svg>
