<svg width="28" height="20" viewBox="0 0 28 20" fill="none" xmlns="http://www.w3.org/2000/svg">
<path d="M27.3343 12.4293L25.852 11.3696L25.8321 7.19349C25.8303 6.81205 25.5547 6.54742 25.1593 6.54742H20.5685L17.7494 17.0685H25.6401C26.1243 17.0685 26.6221 16.6759 26.7518 16.1917L27.5585 13.1811C27.6411 12.8732 27.556 12.5878 27.3343 12.4293Z" fill="#FFA95F"/>
<path d="M20.6146 15.7533C20.5515 15.7533 20.4665 15.7404 20.4192 15.6787C20.3767 15.6234 20.3683 15.5322 20.3961 15.4284L20.8964 13.5614H18.689L17.7494 17.0684H25.6401C26.1244 17.0684 26.622 16.6759 26.7518 16.1917L26.8693 15.7533H20.6146Z" fill="#FF8B5A"/>
<path d="M27.3343 12.4293L25.852 11.3696L25.8321 7.19349C25.8303 6.81205 25.5547 6.54742 25.1593 6.54742H22.7758L20.8964 13.5615H27.4566L27.5585 13.1811C27.6411 12.8732 27.556 12.5878 27.3343 12.4293Z" fill="#FFC269"/>
<path d="M8.96727 5.67075H21.2418C21.4839 5.67075 21.6276 5.86702 21.5627 6.10912L18.6262 17.0685H5.91323C5.67113 17.0685 5.52747 16.8723 5.59232 16.6302L8.41143 6.10912C8.47629 5.86702 8.72517 5.67075 8.96727 5.67075Z" fill="#E5646E"/>
<path d="M18.6262 17.0685L18.9786 15.7534H18.8611H7.71782C7.43536 15.7534 7.22974 15.4855 7.30286 15.2126L7.64689 13.9283C7.71191 13.6856 7.96829 13.5583 8.20705 13.6366C9.09423 13.9274 10.0316 14.0457 10.9823 13.9839C14.4232 13.7603 17.1714 11.0737 17.827 7.68852C17.9635 6.98377 17.9795 6.448 17.8866 5.67068H8.9672C8.7251 5.67068 8.47622 5.86696 8.41136 6.10905L5.59225 16.6301C5.52739 16.8722 5.671 17.0685 5.91315 17.0685H18.6262V17.0685Z" fill="#DB4655"/>
<path d="M24.48 18.2205C25.3135 17.4911 25.5364 16.3825 24.978 15.7445C24.4196 15.1064 23.2913 15.1805 22.4578 15.9099C21.6244 16.6393 21.4014 17.7479 21.9598 18.3859C22.5182 19.024 23.6465 18.9499 24.48 18.2205Z" fill="#5D5360"/>
<path d="M10.8848 18.2275C11.7182 17.4981 11.9412 16.3895 11.3828 15.7515C10.8244 15.1134 9.69609 15.1875 8.86263 15.9169C8.02917 16.6463 7.80619 17.7549 8.36459 18.3929C8.92299 19.031 10.0513 18.9569 10.8848 18.2275Z" fill="#5D5360"/>
<path d="M22.7835 11.3696H25.8522L25.8375 8.30096H23.6058C23.1216 8.30096 22.6239 8.69351 22.4941 9.17771L22.1417 10.4928C22.0119 10.9771 22.2992 11.3696 22.7835 11.3696Z" fill="#DBEAFF"/>
<path d="M10.4928 12.6847C13.8824 12.6847 16.6301 9.93697 16.6301 6.54744C16.6301 3.15791 13.8824 0.410156 10.4928 0.410156C7.10332 0.410156 4.35556 3.15791 4.35556 6.54744C4.35556 9.93697 7.10332 12.6847 10.4928 12.6847Z" fill="#ECEAEC"/>
<path d="M10.4928 11.3696C13.156 11.3696 15.3149 9.21065 15.3149 6.54746C15.3149 3.88428 13.156 1.72534 10.4928 1.72534C7.82962 1.72534 5.67068 3.88428 5.67068 6.54746C5.67068 9.21065 7.82962 11.3696 10.4928 11.3696Z" fill="white"/>
<path d="M10.4928 7.42425C10.9771 7.42425 11.3696 7.03171 11.3696 6.5475C11.3696 6.06328 10.9771 5.67075 10.4928 5.67075C10.0086 5.67075 9.61609 6.06328 9.61609 6.5475C9.61609 7.03171 10.0086 7.42425 10.4928 7.42425Z" fill="#5D5360"/>
<path d="M25.8521 11.3696L25.8459 10.0545H23.8952C23.8322 10.0545 23.7471 10.0416 23.6999 9.97993C23.6574 9.92458 23.649 9.83336 23.6768 9.72957L24.0292 8.41439L24.0596 8.30096H23.6058C23.1215 8.30096 22.6238 8.69351 22.4941 9.17771L22.1416 10.4928C22.0119 10.977 22.2993 11.3696 22.7835 11.3696L25.8521 11.3696Z" fill="#C3DDFF"/>
<path d="M23.4483 16.6583C23.2218 16.6583 23.0382 16.842 23.0382 17.0685C23.0382 17.295 23.2218 17.4786 23.4483 17.4786H23.4527C23.6792 17.4786 23.8607 17.295 23.8607 17.0685C23.8607 16.842 23.6749 16.6583 23.4483 16.6583Z" fill="black"/>
<path d="M9.85861 16.6583C9.6321 16.6583 9.44846 16.842 9.44846 17.0685C9.44846 17.295 9.6321 17.4786 9.85861 17.4786H9.86299C10.0895 17.4786 10.271 17.295 10.271 17.0685C10.271 16.842 10.0852 16.6583 9.85861 16.6583Z" fill="black"/>
<path d="M27.5729 12.0957L26.2612 11.158L26.2423 7.19158C26.2394 6.58073 25.7839 6.13733 25.1594 6.13733H21.9755C22.0128 5.9211 21.9649 5.70848 21.8388 5.54409C21.7006 5.36395 21.483 5.26059 21.2419 5.26059H18.3836C18.1571 5.26059 17.9734 5.44423 17.9734 5.67074C17.9734 5.89725 18.1571 6.08089 18.3836 6.08089L21.1457 6.08095L18.3114 16.6584H12.0825C12.0909 16.2476 11.9742 15.8626 11.7401 15.5575C11.4172 15.1367 10.9159 14.9048 10.3285 14.9048C9.27281 14.9048 8.22491 15.6538 7.81213 16.6584L6.00938 16.6583L6.81076 13.6675C6.86938 13.4487 6.73956 13.2239 6.5207 13.1652C6.30228 13.1068 6.07702 13.2364 6.01835 13.4552L5.19613 16.524C5.13116 16.7664 5.17496 17.011 5.31628 17.1952C5.45452 17.3753 5.67212 17.4787 5.91324 17.4787H7.63478C7.62636 17.8895 7.743 18.2744 7.97712 18.5795C8.30005 19.0004 8.80136 19.2322 9.38875 19.2322C10.4444 19.2322 11.4923 18.4832 11.9051 17.4787H21.2245C21.216 17.8895 21.3327 18.2744 21.5668 18.5795C21.8897 19.0004 22.391 19.2322 22.9784 19.2322C24.0341 19.2322 25.082 18.4832 25.4948 17.4787H25.6402C26.3083 17.4787 26.9707 16.96 27.1481 16.2979L27.9548 13.2873C28.0821 12.8117 27.9359 12.3552 27.5729 12.0957ZM11.2159 16.9624C11.0054 17.7481 10.1687 18.4118 9.38875 18.4118C9.06227 18.4118 8.79206 18.2941 8.62789 18.0802C8.45136 17.8502 8.40641 17.5286 8.50129 17.1747C8.71178 16.3889 9.54855 15.7251 10.3285 15.7251C10.655 15.7251 10.9252 15.8429 11.0893 16.0568C11.2658 16.2869 11.3108 16.6084 11.2159 16.9624ZM25.4399 10.9595H22.7834C22.7141 10.9595 22.62 10.9446 22.5657 10.8739C22.5179 10.8115 22.5077 10.7113 22.5378 10.599L22.8902 9.2839C22.9719 8.9788 23.3063 8.71117 23.6056 8.71117H25.4292L25.4399 10.9595ZM24.8056 16.9624C24.5951 17.7481 23.7584 18.4118 22.9784 18.4118C22.652 18.4118 22.3817 18.2941 22.2176 18.0802C22.041 17.8502 21.9961 17.5286 22.091 17.1747C22.3015 16.3889 23.1382 15.7251 23.9182 15.7251C24.2447 15.7251 24.5149 15.8429 24.679 16.0568C24.8555 16.2869 24.9005 16.6084 24.8056 16.9624ZM26.3557 16.0856C26.2768 16.3799 25.963 16.6386 25.6722 16.6567C25.6802 16.2465 25.5635 15.8622 25.3298 15.5575C25.0068 15.1367 24.5055 14.9049 23.9181 14.9049C22.8624 14.9049 21.8145 15.6538 21.4018 16.6584H19.1606L19.8805 13.9717H24.8263C25.0528 13.9717 25.2365 13.7881 25.2365 13.5616C25.2365 13.335 25.0528 13.1514 24.8263 13.1514H20.1003L21.7599 6.95769H25.1593C25.2786 6.95769 25.421 6.99897 25.4219 7.19557L25.4252 7.89092H23.6056C22.9375 7.89092 22.2751 8.40957 22.0977 9.07166L21.7454 10.3868C21.6487 10.7474 21.7105 11.1069 21.9149 11.3733C22.1131 11.6317 22.4297 11.7798 22.7834 11.7798H25.7205L27.0958 12.7631C27.2127 12.8466 27.1763 13.023 27.1623 13.0751L27.1419 13.1514H26.5798C26.3533 13.1514 26.1697 13.335 26.1697 13.5616C26.1697 13.7881 26.3533 13.9717 26.5798 13.9717H26.9221L26.3557 16.0856Z" fill="black"/>
<path d="M10.4928 13.0949C14.1031 13.0949 17.0403 10.1578 17.0403 6.54744C17.0403 2.93712 14.1031 0 10.4928 0C6.88258 0 3.9454 2.93718 3.9454 6.54744C3.9454 10.1577 6.88258 13.0949 10.4928 13.0949ZM10.4928 0.820303C13.6508 0.820303 16.22 3.38949 16.22 6.54744C16.22 9.70539 13.6508 12.2746 10.4928 12.2746C7.33484 12.2746 4.76571 9.70539 4.76571 6.54744C4.76571 3.38949 7.3349 0.820303 10.4928 0.820303Z" fill="black"/>
<path d="M8.73934 8.7111C8.84428 8.7111 8.94928 8.67107 9.02934 8.59096L9.92063 7.69967C10.0931 7.78569 10.2874 7.83436 10.4928 7.83436C11.2024 7.83436 11.7797 7.25703 11.7797 6.54747C11.7797 6.34201 11.731 6.14777 11.645 5.97528L13.8515 3.76889C14.0116 3.60871 14.0116 3.349 13.8515 3.18888C13.6913 3.02865 13.4316 3.0287 13.2715 3.18888L11.065 5.39527C10.8925 5.30925 10.6983 5.26064 10.4928 5.26064C9.7832 5.26064 9.20593 5.83796 9.20593 6.54753C9.20593 6.75299 9.2546 6.94723 9.34057 7.11972L8.44928 8.011C8.2891 8.17118 8.2891 8.43089 8.44928 8.59101C8.5294 8.67107 8.63434 8.7111 8.73934 8.7111ZM10.4928 6.08088C10.7501 6.08088 10.9594 6.29022 10.9594 6.54747C10.9594 6.80472 10.7501 7.01406 10.4928 7.01406C10.2356 7.01406 10.0262 6.80472 10.0262 6.54747C10.0262 6.29022 10.2356 6.08088 10.4928 6.08088Z" fill="black"/>
<path d="M10.4928 3.01217C10.7194 3.01217 10.903 2.82853 10.903 2.60201V2.16364C10.903 1.93712 10.7194 1.75348 10.4928 1.75348C10.2663 1.75348 10.0827 1.93712 10.0827 2.16364V2.60201C10.0827 2.82858 10.2663 3.01217 10.4928 3.01217Z" fill="black"/>
<path d="M10.4928 10.0826C10.2663 10.0826 10.0827 10.2663 10.0827 10.4928V10.9311C10.0827 11.1577 10.2663 11.3413 10.4928 11.3413C10.7194 11.3413 10.903 11.1577 10.903 10.9311V10.4928C10.903 10.2663 10.7194 10.0826 10.4928 10.0826Z" fill="black"/>
<path d="M14.4382 6.95764H14.8766C15.1031 6.95764 15.2867 6.774 15.2867 6.54749C15.2867 6.32097 15.1031 6.13733 14.8766 6.13733H14.4382C14.2117 6.13733 14.028 6.32097 14.028 6.54749C14.028 6.774 14.2117 6.95764 14.4382 6.95764Z" fill="black"/>
<path d="M6.95759 6.54749C6.95759 6.32097 6.77395 6.13733 6.54743 6.13733H6.10905C5.88254 6.13733 5.6989 6.32097 5.6989 6.54749C5.6989 6.774 5.88254 6.95764 6.10905 6.95764H6.54743C6.77395 6.95764 6.95759 6.774 6.95759 6.54749Z" fill="black"/>
<path d="M4.7939 11.8361H0.410151C0.183638 11.8361 0 12.0198 0 12.2463C0 12.4728 0.183638 12.6564 0.410151 12.6564H4.7939C5.02042 12.6564 5.20406 12.4728 5.20406 12.2463C5.20406 12.0198 5.02042 11.8361 4.7939 11.8361Z" fill="black"/>
<path d="M4.35557 13.5897H1.72527C1.49875 13.5897 1.31511 13.7733 1.31511 13.9998C1.31511 14.2263 1.49875 14.41 1.72527 14.41H4.35557C4.58209 14.41 4.76573 14.2263 4.76573 13.9998C4.76573 13.7733 4.58209 13.5897 4.35557 13.5897Z" fill="black"/>
<path d="M3.9172 15.3431H3.04045C2.81394 15.3431 2.63029 15.5268 2.63029 15.7533C2.63029 15.9798 2.81394 16.1635 3.04045 16.1635H3.9172C4.14372 16.1635 4.32736 15.9798 4.32736 15.7533C4.32736 15.5268 4.14372 15.3431 3.9172 15.3431Z" fill="black"/>
</svg>
