<svg width="46" height="46" viewBox="0 0 46 46" fill="none" xmlns="http://www.w3.org/2000/svg">
<g clip-path="url(#clip0_9016_52)">
<path d="M38.7018 9.40399L37.8239 34.5439L6.37368 33.4457C4.2479 33.3714 2.59094 31.5945 2.66518 29.4687L3.57861 3.31134C3.6059 2.53009 4.27338 1.90765 5.06371 1.93525L13.9029 2.24392C14.2753 2.25693 14.6424 2.42436 14.8966 2.69698L18.7714 6.86159C19.0257 7.13428 19.3927 7.30171 19.7652 7.31471L37.3254 7.92793C38.1066 7.9552 38.7291 8.62274 38.7018 9.40399Z" fill="#C7C7C7"/>
<g opacity="0.05">
<path d="M38.7058 9.4063L37.8279 34.5471L6.37009 33.4486C4.61115 33.3872 3.18079 32.1604 2.78027 30.5377C3.11495 30.651 3.46839 30.7141 3.83201 30.7268L10.1489 30.9474C23.6284 31.4181 35.0092 21.1899 36.0919 7.88414L37.3266 7.92725C38.1045 7.95443 38.7333 8.61986 38.7058 9.4063Z" fill="black"/>
</g>
<path d="M43.813 14.8893L43.1906 32.7121C43.1516 33.8295 42.2209 34.6975 41.1034 34.6585L6.37372 33.4457C8.49945 33.5199 10.2764 31.8629 10.3506 29.7371L10.9092 13.7403C10.9482 12.6229 11.879 11.755 12.9964 11.794L41.8667 12.8021C42.9841 12.8412 43.852 13.7719 43.813 14.8893Z" fill="#DDDDDD"/>
<g opacity="0.05">
<path d="M43.8143 14.8932L43.1921 32.7108C43.1531 33.827 42.2167 34.7003 41.1005 34.6613L6.37006 33.4485C8.09515 33.5087 9.58048 32.4345 10.1335 30.9044L20.704 31.2736C31.4435 31.6486 40.4854 23.4214 41.1957 12.7782L41.8638 12.8016C42.9801 12.8405 43.8536 13.7685 43.8143 14.8932Z" fill="black"/>
</g>
<path d="M13.3229 29.2918L40.3176 30.2344C40.2226 29.7439 41.2402 25.5694 37.5857 24.1351C37.307 22.1201 35.7126 20.5316 33.7443 20.4629C33.5699 20.4568 33.3895 20.4626 33.2198 20.487C32.705 19.7481 31.9629 19.2314 31.1138 19.0382C30.4136 17.4809 28.9582 16.4305 27.2935 16.3724L27.2822 16.372C25.6176 16.3138 24.0924 17.2602 23.2853 18.7648C22.4247 18.8984 21.6484 19.362 21.0834 20.0632C20.9157 20.027 20.7362 20.0087 20.5618 20.0026C18.5935 19.9339 16.8922 21.4072 16.4736 23.3979C12.7113 24.579 13.4569 28.7904 13.3229 29.2918Z" fill="#F6C560"/>
<g opacity="0.05">
<path d="M40.3203 30.2355L13.3255 29.2929C13.3848 27.5946 13.3816 27.5265 13.4026 27.4093L32.985 28.0931C34.9253 28.1609 35.5721 25.4413 33.7731 24.714L33.7287 24.6956C33.4499 22.6813 31.8555 21.094 29.8872 21.0253C29.7128 21.0192 29.5325 21.0242 29.3628 21.0464C28.848 20.3077 28.1058 19.7919 27.2567 19.599C26.7396 18.4435 25.8018 17.5661 24.6781 17.1722C25.4289 16.6353 26.3344 16.3403 27.2849 16.3735L27.2961 16.3739C28.9608 16.432 30.4164 17.4795 31.1166 19.0355C31.9655 19.2341 32.7077 19.7499 33.2224 20.4886C33.3923 20.4607 33.5727 20.4558 33.747 20.4619C35.7154 20.5306 37.3098 22.1178 37.5883 24.1378C41.1397 25.5253 40.2583 29.9156 40.3203 30.2355Z" fill="black"/>
</g>
<path d="M31.8594 39.9337L34.0404 41.4907L38.0101 37.7835L36.6142 35.5107C37.1931 34.5397 37.5429 33.4824 37.5776 33.399L37.5778 33.3933L40.2228 32.9508L40.3177 30.2344L13.3229 29.2918L13.228 32.0081L15.8357 32.6341C16.0342 33.4012 16.3131 34.1204 16.6437 34.8133L15.087 36.9831L18.7996 40.9585L21.0783 39.5572C21.7695 39.9634 22.5233 40.2883 23.1844 40.5204L23.6269 43.1654L29.0653 43.3553C29.0761 43.3105 28.9705 43.7503 29.6913 40.7476C30.2247 40.6181 31.0675 40.3269 31.8594 39.9337Z" fill="#FF5975"/>
<g opacity="0.05">
<path d="M23.6211 43.1709L29.0651 43.361L29.0653 43.3554L29.6911 40.7533C30.131 40.6465 31.0401 40.3405 31.8594 39.9337L34.0404 41.4907L38.0101 37.7836L36.6086 35.5105C37.2305 34.4675 37.5282 33.5178 37.5776 33.399L40.2226 32.9564L40.3177 30.2344L35.9591 30.0822C33.4314 35.5516 28.121 39.4372 21.8911 39.9854C22.216 40.1449 22.8513 40.4109 23.1786 40.5259L23.6211 43.1709Z" fill="black"/>
</g>
<path d="M33.5744 30.0046L33.5746 29.999L20.0715 29.5275C20.0169 31.091 20.5011 32.5437 21.3498 33.7164C25.1061 38.9095 33.3407 36.4184 33.5744 30.0046Z" fill="white"/>
<g opacity="0.05">
<path d="M33.5744 30.0046L33.5689 29.9988L32.2698 29.9534C31.2105 34.899 25.2442 36.9718 21.3498 33.7164C25.1061 38.9095 33.3407 36.4184 33.5744 30.0046Z" fill="black"/>
</g>
<path d="M41.8961 11.9563L39.4624 11.8713L39.5475 9.43347C39.5912 8.1807 38.6078 7.12606 37.355 7.08231L19.7948 6.46909C19.647 6.46393 19.4915 6.39318 19.3911 6.28549L15.5157 2.1198C15.1077 1.68222 14.5306 1.41898 13.9327 1.3981L5.09317 1.08942C3.83545 1.0455 2.77667 2.02883 2.73292 3.28159L1.81949 29.439C1.72921 32.0242 3.75911 34.201 6.34393 34.2913L15.8452 34.6231L15.8633 34.6237C15.881 34.6642 15.8945 34.7035 15.9127 34.7441L14.5716 36.6134C14.3952 36.859 14.4165 37.1955 14.6229 37.4164L18.3355 41.3916C18.5428 41.6118 18.8744 41.6572 19.1321 41.4992L21.0924 40.2935C21.5639 40.5481 22.0816 40.7841 22.6193 40.9893L23.001 43.2702C23.0509 43.568 23.3037 43.7893 23.6051 43.7998L29.0431 43.9897C29.3445 44.0002 29.6121 43.7971 29.6827 43.504L30.2207 41.261C30.6585 41.1307 31.217 40.9307 31.795 40.6673L33.6714 42.007C33.915 42.1825 34.2531 42.1612 34.4728 41.9543L38.4429 38.2474C38.6634 38.0418 38.7089 37.7089 38.5509 37.4516L37.3516 35.4977C37.372 35.4599 37.3912 35.4149 37.4114 35.3762L41.0737 35.5041C42.6519 35.5592 43.9809 34.3199 44.036 32.7417L44.6584 14.9189C44.7135 13.3404 43.4742 12.0114 41.8961 11.9563ZM3.51077 29.498L4.42421 3.34065C4.43519 3.02601 4.71453 2.76953 5.03412 2.78069L13.8737 3.08938C14.0215 3.09454 14.177 3.16529 14.2774 3.27298L18.1528 7.43867C18.5608 7.87667 19.1379 8.13949 19.7357 8.16037L37.2959 8.77359C37.6106 8.78457 37.8672 9.05977 37.8562 9.37441L37.7711 11.8122L13.0263 10.9481C11.4481 10.893 10.1191 12.1323 10.064 13.7109L9.50538 29.7074C9.44766 31.3603 8.05629 32.6577 6.40299 32.6C4.75053 32.5423 3.45305 31.1509 3.51077 29.498ZM33.9868 40.6727L32.2281 39.4174C32.0378 39.2809 31.7863 39.2601 31.5776 39.3653C30.8388 39.7318 30.0924 39.9873 29.6343 40.1073C29.5604 40.1142 29.487 40.1344 29.418 40.1676C29.2742 40.2365 29.1623 40.362 29.1026 40.5096C29.1026 40.5096 29.1026 40.5104 29.1026 40.5108C29.0926 40.5353 29.0843 40.5606 29.0776 40.5869C29.0776 40.5877 29.0767 40.5881 29.0767 40.5881C29.0757 40.5922 29.0748 40.5963 29.0738 40.6L28.5688 42.7031L24.168 42.5494L23.8109 40.4158C23.7726 40.1875 23.613 39.9983 23.3949 39.9217C22.6736 39.6687 21.9843 39.3536 21.4002 39.0103C21.1993 38.8908 20.9454 38.8931 20.7459 39.0164L18.909 40.1462L15.9058 36.9304L17.1591 35.1832C17.2938 34.9953 17.3156 34.7488 17.2162 34.5403C16.875 33.8239 16.6241 33.1483 16.45 32.4754C16.3917 32.2481 16.2119 32.0719 15.9839 32.0172L13.8799 31.5121L13.9345 29.948L19.4476 30.1406C19.6387 33.9296 22.7051 37.0169 26.5624 37.1516C30.4222 37.2864 33.6994 34.4206 34.1548 30.6541L39.6613 30.8464L39.6066 32.4105L37.4734 32.7677C37.2363 32.8073 37.0476 32.9785 36.9754 33.1992C36.9654 33.2258 36.9545 33.2551 36.9526 33.2609C36.6809 34.0108 36.3837 34.6586 36.0693 35.1859C35.9481 35.3888 35.95 35.6418 36.0737 35.8429L37.1979 37.6739L33.9868 40.6727ZM16.5569 24.0488C16.9859 24.1112 18.4149 24.4162 18.8428 25.7373C18.485 26.0552 17.7348 26.5967 16.8839 26.4424C16.5354 26.3814 16.2091 26.6114 16.1483 26.9562C16.0866 27.3013 16.3165 27.6309 16.6617 27.6922C17.7767 27.8903 18.7109 27.4223 19.314 26.9857C19.6929 27.5715 20.3554 28.1341 21.3984 28.1706L21.4298 28.1717C21.78 28.1802 22.0708 27.903 22.0798 27.5527C22.0886 27.2045 21.8151 26.9151 21.4674 26.903C21.46 26.9027 21.4517 26.9028 21.4435 26.9021C20.4302 26.8667 20.1914 25.915 20.1686 25.8113C20.1667 25.8017 20.1614 25.7937 20.1591 25.7843C19.8195 24.0159 18.3927 23.2026 17.2796 22.9069C18.1964 20.5533 21.1895 19.6146 22.9081 22.1191C22.9099 22.5428 22.8416 23.7097 22.0578 24.3931C21.7935 24.6232 21.7654 25.0241 21.996 25.2884C22.2246 25.5508 22.6251 25.5818 22.8909 25.3499C23.7684 24.5855 24.0558 23.5058 24.1436 22.7445C24.8153 22.8308 25.6726 22.6676 26.3971 21.833C26.6263 21.5682 26.5973 21.1674 26.3324 20.9378C26.0684 20.7086 25.6681 20.736 25.4372 21.0016C24.8362 21.6951 24.1846 21.4985 23.9404 21.3865C23.4263 20.6441 22.7747 20.16 22.2334 19.866C22.5826 19.6255 22.9701 19.456 23.3826 19.392C23.5796 19.3612 23.7508 19.2403 23.8446 19.0646C24.5513 17.7461 25.8604 16.9575 27.2717 17.0068C28.6707 17.0557 29.9216 17.9336 30.5354 19.2986C30.6167 19.4801 30.7791 19.6127 30.9735 19.6571C31.38 19.7497 31.7546 19.9458 32.0865 20.2102C31.5266 20.4653 30.8442 20.9021 30.2803 21.6051C30.0566 21.6892 29.3724 21.8666 28.8115 21.1195C28.5998 20.8384 28.2023 20.7836 27.923 20.9934C27.6428 21.2039 27.5859 21.6017 27.796 21.8819C28.4597 22.765 29.2928 22.988 29.9805 22.9483C30.0141 23.7139 30.2255 24.8106 31.0484 25.6343C31.2957 25.8825 31.6976 25.8831 31.9455 25.6351C32.1939 25.3878 32.1938 24.986 31.9462 24.738C31.208 23.998 31.2235 22.8325 31.256 22.4109C32.0623 21.3943 33.268 21.1267 33.3292 21.1142C33.4571 21.097 33.5917 21.0925 33.722 21.0971C35.1507 21.1469 36.3713 22.1607 36.8156 23.5892C35.6811 23.8072 34.195 24.5213 33.7371 26.2724C33.7358 26.2767 33.733 26.2802 33.7319 26.2845C33.7196 26.3271 33.4344 27.3209 32.3823 27.2841C32.3749 27.2843 32.365 27.2831 32.3592 27.2833C32.0115 27.2712 31.7185 27.5408 31.703 27.8888C31.6875 28.2392 31.9583 28.5356 32.3083 28.5515L32.3397 28.5526C33.3827 28.5891 34.0828 28.074 34.5025 27.5161C35.0745 27.9937 35.9812 28.5235 37.099 28.4059C37.4476 28.3689 37.7 28.056 37.6625 27.7079C37.6259 27.3589 37.3131 27.1066 36.9645 27.1436C36.1161 27.2392 35.4151 26.664 35.0757 26.3197C35.5939 25.0307 37.0163 24.8097 37.457 24.7782C39.6273 25.695 39.8364 27.6968 39.7089 29.5781L33.597 29.3647L27.0776 29.137C27.6473 28.5867 28.1022 27.8382 28.182 26.8342C28.1832 26.8262 28.1869 26.8191 28.1878 26.8111C28.1992 26.6973 28.3334 25.6945 29.3663 25.5243C29.7122 25.4674 29.9469 25.1407 29.8895 24.7947C29.8321 24.4492 29.5063 24.2141 29.1603 24.2719C28.11 24.4453 27.5098 25.1052 27.1989 25.7451C26.5489 25.3941 25.5601 25.0599 24.4822 25.4083C24.1493 25.5162 23.9657 25.874 24.0739 26.2073C24.1821 26.541 24.5378 26.7258 24.8732 26.6159C25.6811 26.3544 26.462 26.7584 26.858 27.022C26.554 28.5035 25.0166 28.9796 24.7203 29.0547L20.094 28.8931L13.9756 28.6795C13.9762 26.7981 14.3181 24.8146 16.5569 24.0488ZM32.8863 30.6099C32.46 33.6765 29.7672 35.9935 26.6068 35.8832C23.4497 35.7729 20.9275 33.2738 20.7162 30.1849L32.8863 30.6099ZM42.3447 32.6827C42.3222 33.3285 41.7786 33.8354 41.1328 33.8128L39.2992 33.7488L40.3275 33.5767C40.6252 33.5272 40.8465 33.2745 40.857 32.973L40.9519 30.2565C41.0512 27.4121 40.965 24.9915 38.151 23.6867C37.6931 21.5032 35.9002 19.9031 33.7663 19.8286C33.6804 19.8256 33.5961 19.8251 33.515 19.8273C32.9921 19.1976 32.3144 18.7382 31.5595 18.5014C30.7044 16.8509 29.1031 15.8008 27.3045 15.738C25.5157 15.6755 23.8459 16.6114 22.8785 18.1982C22.1081 18.3818 21.4001 18.7928 20.8353 19.3849C18.6034 19.1581 16.5733 20.6809 15.9406 22.9115C12.3317 24.2865 12.7638 27.6702 12.5934 31.9861C12.5829 32.2875 12.786 32.555 13.0796 32.6252L14.0929 32.8686L10.006 32.7258C10.7124 31.9365 11.1569 30.9053 11.1967 29.7665L11.7553 13.7699C11.7778 13.1242 12.3214 12.6169 12.9672 12.6394L41.837 13.6476C42.4828 13.6701 42.9897 14.2141 42.9671 14.8599L42.3447 32.6827Z" fill="#293C66"/>
</g>
<defs>
<clipPath id="clip0_9016_52">
<rect width="44" height="44" fill="white" transform="translate(2) rotate(2)"/>
</clipPath>
</defs>
</svg>
