<svg width="34" height="34" viewBox="0 0 34 34" fill="none" xmlns="http://www.w3.org/2000/svg">
<path d="M22.8438 8.5L25.4568 17.3844C25.4854 17.4817 25.5 17.5826 25.5 17.684V32.9375H17V8.5H22.8438Z" fill="#93573D"/>
<path d="M20.1875 32.9375H1.59375V17.7928C1.59376 17.6191 1.61506 17.446 1.65717 17.2774L4.25 8.5H22.8438L20.2509 17.2774C20.2088 17.446 20.1875 17.6191 20.1875 17.7928V32.9375Z" fill="#AB6647"/>
<path d="M8.42135 29.2188H7.5161C7.37019 29.2188 7.22584 29.1887 7.09205 29.1305C6.95826 29.0723 6.8379 28.9871 6.73846 28.8803C6.63903 28.7735 6.56265 28.6474 6.5141 28.5098C6.46555 28.3722 6.44586 28.2261 6.45625 28.0805L6.90622 21.7812H9.03122L9.48119 28.0805C9.49159 28.2261 9.47189 28.3722 9.42334 28.5098C9.37479 28.6474 9.29841 28.7735 9.19898 28.8803C9.09955 28.9871 8.97919 29.0723 8.8454 29.1305C8.71161 29.1887 8.56726 29.2188 8.42135 29.2188Z" fill="#E74444"/>
<path d="M14.2322 29.2188H13.3928C13.2443 29.2188 13.0975 29.1877 12.9618 29.1274C12.8262 29.0672 12.7046 28.9793 12.605 28.8692C12.5054 28.7591 12.4299 28.6294 12.3835 28.4884C12.3371 28.3474 12.3208 28.1982 12.3355 28.0505L12.75 23.9062H14.875L15.2894 28.0505C15.3042 28.1982 15.2878 28.3474 15.2414 28.4884C15.195 28.6294 15.1196 28.7591 15.02 28.8692C14.9204 28.9793 14.7988 29.0672 14.6631 29.1274C14.5274 29.1877 14.3806 29.2188 14.2322 29.2188Z" fill="#E74444"/>
<path d="M3.71875 5.3125C3.13192 5.3125 2.65625 6.02604 2.65625 6.90625C2.65625 7.78646 3.13192 8.5 3.71875 8.5H22.8438V5.3125H3.71875Z" fill="#93573D"/>
<path d="M26.0312 6.69196C26.0313 6.99915 25.9708 7.30335 25.8532 7.58716C25.7357 7.87098 25.5633 8.12886 25.3461 8.34608C25.1289 8.56331 24.871 8.73562 24.5872 8.85318C24.3034 8.97074 23.9992 9.03125 23.692 9.03125H22.386C22.3384 9.03125 22.2921 9.04714 22.2545 9.07641L18.9391 11.6551C18.5639 11.9468 18.089 12.0792 17.6171 12.0235C17.1451 11.9678 16.7141 11.7285 16.4172 11.3574C16.1393 11.0099 15.9992 10.5722 16.0238 10.128C16.0484 9.68372 16.236 9.26414 16.5506 8.9495L19.8218 5.67827C19.8518 5.64831 19.8722 5.61012 19.8805 5.56855C19.8888 5.52698 19.8845 5.48389 19.8683 5.44473C19.8521 5.40557 19.8246 5.3721 19.7893 5.34857C19.7541 5.32503 19.7126 5.31248 19.6703 5.3125H10.0938L15.4138 2.41055C15.7575 2.22316 16.1426 2.12498 16.534 2.125H30.067C30.1238 2.12502 30.1783 2.14759 30.2185 2.18777C30.2587 2.22794 30.2812 2.28242 30.2812 2.33923V6.16077C30.2812 6.21758 30.2587 6.27206 30.2185 6.31223C30.1783 6.35241 30.1238 6.37498 30.067 6.375H26.3483C26.3066 6.37499 26.2654 6.38318 26.227 6.39911C26.1885 6.41503 26.1535 6.43838 26.1241 6.46781C26.0947 6.49724 26.0713 6.53219 26.0554 6.57065C26.0395 6.60911 26.0312 6.65033 26.0312 6.69196Z" fill="#F5CBAA"/>
<path d="M28.1562 1.0625H32.4062V7.96875H28.1562V1.0625Z" fill="#155384"/>
<path d="M20.1875 32.9375L22.8438 30.2812L25.5 32.9375H20.1875Z" fill="#794832"/>
<path d="M12.75 23.9062V23.375L11.6875 22.8438C11.6875 22.8438 12.0859 17.5312 14.875 17.5312V23.9062H12.75Z" fill="#D9DBDD"/>
<path d="M10.0938 19.6562L9.03125 21.7812H6.90625L5.84375 19.6562H10.0938Z" fill="#D9DBDD"/>
<path d="M15.4063 23.8797V17.5312C15.4063 17.3904 15.3503 17.2552 15.2507 17.1556C15.1511 17.056 15.0159 17 14.875 17C11.6304 17 11.1755 22.567 11.1577 22.8039C11.1499 22.909 11.1734 23.0141 11.2255 23.1058C11.2775 23.1975 11.3556 23.2717 11.4499 23.3188L12.2188 23.7033V23.88L11.8071 27.9977C11.7849 28.2192 11.8094 28.443 11.879 28.6545C11.9486 28.866 12.0618 29.0605 12.2112 29.2256C12.3606 29.3907 12.5429 29.5227 12.7465 29.613C12.95 29.7033 13.1702 29.75 13.3928 29.75H14.2322C14.4549 29.75 14.6751 29.7033 14.8786 29.613C15.0821 29.5227 15.2645 29.3907 15.4139 29.2256C15.5633 29.0605 15.6764 28.866 15.746 28.6545C15.8156 28.443 15.8402 28.2192 15.818 27.9977L15.4063 23.8797ZM12.2552 22.5336C12.3473 21.7887 12.5111 21.0544 12.7443 20.341C13.1526 19.1396 13.689 18.4085 14.3438 18.1593V23.375H13.2813C13.2813 23.2763 13.2538 23.1796 13.2019 23.0957C13.1501 23.0118 13.0759 22.944 12.9876 22.8999L12.2552 22.5336ZM14.6259 28.5127C14.5764 28.568 14.5157 28.6122 14.4478 28.6423C14.38 28.6725 14.3065 28.6878 14.2322 28.6875H13.3928C13.3186 28.6875 13.2452 28.672 13.1773 28.6418C13.1094 28.6117 13.0486 28.5677 12.9988 28.5127C12.949 28.4576 12.9113 28.3927 12.8881 28.3222C12.8649 28.2516 12.8568 28.177 12.8642 28.1031L13.2308 24.4375H14.3942L14.7609 28.1031C14.7687 28.177 14.7607 28.2518 14.7375 28.3224C14.7143 28.393 14.6763 28.4579 14.6261 28.5127H14.6259Z" fill="black"/>
<path d="M32.4062 0.53125H28.1562C28.0154 0.53125 27.8802 0.587221 27.7806 0.68685C27.681 0.786478 27.625 0.921604 27.625 1.0625V1.59375H16.534C16.0537 1.59409 15.5811 1.71457 15.1594 1.94424L9.95821 4.78125H3.71875C2.82505 4.78125 2.125 5.71466 2.125 6.90625C2.125 8.01842 2.73494 8.90508 3.54284 9.0187L1.1477 17.1269C1.14557 17.1341 1.14358 17.1414 1.14172 17.1487C1.08913 17.3594 1.06253 17.5757 1.0625 17.7928V32.9375C1.0625 33.0784 1.11847 33.2135 1.2181 33.3132C1.31773 33.4128 1.45285 33.4688 1.59375 33.4688H25.5C25.6409 33.4688 25.776 33.4128 25.8757 33.3132C25.9753 33.2135 26.0312 33.0784 26.0312 32.9375V17.8372C26.0313 17.5835 25.9949 17.3311 25.9233 17.0877L23.7098 9.56203C24.4307 9.55676 25.1232 9.2808 25.6501 8.78889C26.177 8.29697 26.4999 7.62502 26.5546 6.90625H27.625V7.96875C27.625 8.10965 27.681 8.24477 27.7806 8.3444C27.8802 8.44403 28.0154 8.5 28.1562 8.5H32.4062C32.5471 8.5 32.6823 8.44403 32.7819 8.3444C32.8815 8.24477 32.9375 8.10965 32.9375 7.96875V1.0625C32.9375 0.921604 32.8815 0.786478 32.7819 0.68685C32.6823 0.587221 32.5471 0.53125 32.4062 0.53125ZM3.1875 6.90625C3.1875 6.25766 3.50213 5.84375 3.71875 5.84375H18.905L16.78 7.96875H3.71875C3.50213 7.96875 3.1875 7.55484 3.1875 6.90625ZM19.7355 17.1488C19.6829 17.3594 19.6563 17.5757 19.6562 17.7929V32.4062H2.125V17.7928C2.12505 17.666 2.14019 17.5397 2.17009 17.4164L4.64698 9.03125H15.8188C15.5415 9.49981 15.4362 10.0504 15.5211 10.5882C15.606 11.126 15.8757 11.6174 16.2838 11.9778C16.692 12.3382 17.213 12.545 17.7572 12.5626C18.3014 12.5803 18.8347 12.4076 19.2653 12.0744L21.8211 10.0864L19.7414 17.127C19.7393 17.1342 19.7373 17.1415 19.7355 17.1488ZM22.8438 31.0326L24.2174 32.4062H21.4701L22.8438 31.0326ZM24.904 17.3877C24.947 17.5337 24.9688 17.6851 24.9688 17.8372V31.6549L23.375 30.0612V18.5938C23.375 18.4529 23.319 18.3177 23.2194 18.2181C23.1198 18.1185 22.9846 18.0625 22.8438 18.0625C22.7029 18.0625 22.5677 18.1185 22.4681 18.2181C22.3685 18.3177 22.3125 18.4529 22.3125 18.5938V30.0612L20.7188 31.655V17.7928C20.7188 17.666 20.7339 17.5397 20.7638 17.4164L22.8424 10.379L24.904 17.3877ZM27.625 5.84375H26.3482C26.1233 5.84401 25.9077 5.93346 25.7487 6.09247C25.5897 6.25149 25.5003 6.46708 25.5 6.69196C25.4995 7.17131 25.3088 7.63088 24.9698 7.96983C24.6309 8.30879 24.1713 8.49945 23.692 8.5H22.386C22.2203 8.50029 22.0593 8.55552 21.9283 8.65705L18.6129 11.2359C18.3565 11.4356 18.0335 11.5299 17.71 11.4997C17.3864 11.4696 17.0865 11.3171 16.8714 11.0735C16.6564 10.8299 16.5423 10.5134 16.5525 10.1886C16.5626 9.86377 16.6963 9.55506 16.9262 9.32536L20.5631 5.68836C20.6375 5.61408 20.6881 5.5194 20.7087 5.41632C20.7292 5.31324 20.7187 5.20638 20.6785 5.10927C20.6383 5.01215 20.5702 4.92915 20.4828 4.87076C20.3954 4.81237 20.2926 4.78122 20.1875 4.78125H12.1772L15.6682 2.87698C15.9339 2.73234 16.2315 2.65645 16.534 2.65625H27.625V5.84375ZM31.875 7.4375H28.6875V1.59375H31.875V7.4375Z" fill="black"/>
<path d="M10.625 17.5312C10.625 17.3904 10.569 17.2552 10.4694 17.1556C10.3698 17.056 10.2346 17 10.0938 17C9.95285 17 9.81773 17.056 9.7181 17.1556C9.61847 17.2552 9.5625 17.3904 9.5625 17.5312V19.125H8.5V17.5312C8.5 17.3904 8.44403 17.2552 8.3444 17.1556C8.24477 17.056 8.10965 17 7.96875 17C7.82785 17 7.69273 17.056 7.5931 17.1556C7.49347 17.2552 7.4375 17.3904 7.4375 17.5312V19.125H6.375V17.5312C6.375 17.3904 6.31903 17.2552 6.2194 17.1556C6.11977 17.056 5.98465 17 5.84375 17C5.70285 17 5.56773 17.056 5.4681 17.1556C5.36847 17.2552 5.3125 17.3904 5.3125 17.5312V19.6562H5.3135C5.31313 19.7387 5.332 19.82 5.36861 19.8939L6.36597 21.8886L5.92643 28.0427C5.91083 28.261 5.94037 28.4802 6.01319 28.6866C6.08602 28.893 6.20057 29.0821 6.34972 29.2423C6.49886 29.4025 6.6794 29.5302 6.88007 29.6176C7.08075 29.7049 7.29726 29.75 7.51612 29.75H8.42138C8.64024 29.75 8.85675 29.7049 9.05743 29.6176C9.2581 29.5302 9.43864 29.4025 9.58778 29.2423C9.73693 29.0821 9.85148 28.893 9.92431 28.6866C9.99713 28.4802 10.0267 28.261 10.0111 28.0427L9.57153 21.8886L10.5689 19.8939C10.6055 19.82 10.6244 19.7387 10.624 19.6562H10.625V17.5312ZM9.23419 20.1875L8.70294 21.25H7.23456L6.70331 20.1875H9.23419ZM8.81025 28.5182C8.76073 28.5719 8.70059 28.6147 8.63363 28.6438C8.56668 28.673 8.49439 28.6878 8.42138 28.6875H7.51612C7.44318 28.6875 7.37101 28.6725 7.30412 28.6434C7.23723 28.6143 7.17705 28.5717 7.12733 28.5183C7.07762 28.4649 7.03943 28.4019 7.01515 28.3331C6.99087 28.2643 6.98101 28.1912 6.9862 28.1185L7.40091 22.3125H8.53646L8.95116 28.1185C8.9567 28.1912 8.94703 28.2643 8.92277 28.3332C8.89851 28.402 8.86019 28.465 8.81025 28.5182Z" fill="black"/>
</svg>
