<svg width="50" height="50" viewBox="0 0 50 50" fill="none" xmlns="http://www.w3.org/2000/svg">
<path d="M25 0V50C25.4996 50 25.9411 49.7561 26.2158 49.3822C26.2179 49.3822 40.305 30.1633 40.305 30.1633C42.6041 27.0248 43.9638 23.1533 43.9638 18.9638C43.9638 8.49034 35.4734 0 25 0Z" fill="#E04B3A"/>
<path d="M25 0C14.5266 0 6.03625 8.49034 6.03625 18.9638C6.03625 23.1533 7.39591 27.0248 9.69652 30.1632C9.69491 30.1632 23.7821 49.3821 23.7821 49.3821C24.0589 49.7561 24.5004 49.9999 25 49.9999C25.4202 49.9999 25.7914 49.756 26.0224 49.3821C26.0241 49.3821 37.8694 30.1632 37.8694 30.1632C39.8025 27.0248 40.9457 23.1533 40.9457 18.9638C40.9457 8.49034 33.8066 0 25 0Z" fill="#FF6145"/>
<path d="M25 34.9094C33.8065 34.9094 40.9457 27.7703 40.9457 18.9637C40.9457 10.1572 33.8065 3.01807 25 3.01807C16.1934 3.01807 9.05432 10.1572 9.05432 18.9637C9.05432 27.7703 16.1934 34.9094 25 34.9094Z" fill="#E5F9FF"/>
<path d="M13.9059 12.5587C13.8405 12.6713 13.8048 12.8008 13.8048 12.9356V24.992C13.8048 25.2615 13.9486 25.5106 14.1821 25.6454L24.6227 31.6735C24.7394 31.7409 24.8697 31.7746 25 31.7746L33.177 12.5L13.9059 12.5587Z" fill="#FF9457"/>
<path d="M36.0941 12.5587L24.9995 12.5L33.177 27.17L35.8178 25.6454C36.0512 25.5106 36.1951 25.2615 36.1951 24.992V12.9356C36.1952 12.8008 36.1595 12.6713 36.0941 12.5587Z" fill="#FF6145"/>
<path d="M33.1771 14.2425L25 12.5V31.7746C25.1303 31.7746 25.2606 31.7409 25.3773 31.6735L33.1771 27.17V23.6851L31.668 21.9426L33.1771 20.2V14.2425Z" fill="#FF7E4F"/>
<path d="M33.1775 20.2002L28.0182 23.179V26.664L33.1775 23.6852V20.2002Z" fill="white"/>
<path d="M35.8181 12.2821L25.3773 6.25394C25.1439 6.11913 24.8563 6.11913 24.6228 6.25394L19.4025 9.26752L20.9115 15.7323H30.5976L36.0941 12.5586C36.029 12.4458 35.9348 12.3495 35.8181 12.2821Z" fill="#FF9457"/>
<path d="M19.4025 9.26758L14.182 12.2822C14.0653 12.3496 13.9711 12.4458 13.9059 12.5586L25 18.9638L30.5976 15.7324L19.4025 9.26758Z" fill="#FFAE6B"/>
</svg>
