<svg width="50" height="50" viewBox="0 0 50 50" fill="none" xmlns="http://www.w3.org/2000/svg">
<g clip-path="url(#clip0_9022_283)">
<path fill-rule="evenodd" clip-rule="evenodd" d="M24.1631 8.90195C24.1646 9.12345 24.2532 9.33548 24.4097 9.49216C24.5663 9.64884 24.7783 9.73757 24.9998 9.73916C27.1959 9.74146 29.3014 10.6145 30.8548 12.1669C32.4082 13.7193 33.2826 15.8243 33.2863 18.0204C33.2863 18.2425 33.3745 18.4554 33.5315 18.6124C33.6885 18.7694 33.9014 18.8576 34.1235 18.8576C34.3455 18.8576 34.5585 18.7694 34.7155 18.6124C34.8725 18.4554 34.9607 18.2425 34.9607 18.0204C34.9517 15.3819 33.8992 12.8541 32.0329 10.9888C30.1667 9.12359 27.6383 8.07244 24.9998 8.06485C24.7779 8.06528 24.5653 8.15364 24.4086 8.31056C24.2518 8.46747 24.1636 8.68014 24.1633 8.90195H24.1631ZM7.02701 38.7609L11.4326 31.1219C12.1643 29.8899 12.543 28.4804 12.5272 27.0476V18.0201C12.5272 11.1484 18.1215 5.55332 24.9996 5.55332C24.4504 5.55332 23.9135 5.39047 23.4569 5.08536C23.0003 4.78026 22.6444 4.34659 22.4343 3.83922C22.2241 3.33185 22.1691 2.77355 22.2763 2.23493C22.3834 1.6963 22.6479 1.20155 23.0362 0.813232C23.4245 0.424913 23.9193 0.160469 24.4579 0.0533421C24.9966 -0.0537849 25.5548 0.00121614 26.0622 0.21139C26.5696 0.421564 27.0032 0.77747 27.3083 1.2341C27.6134 1.69073 27.7762 2.22758 27.7762 2.77676C27.7745 3.51259 27.4814 4.21779 26.9611 4.73811C26.4408 5.25844 25.7356 5.55154 24.9998 5.55332C31.8778 5.55332 37.4736 11.1484 37.4736 18.0201V27.0476C37.4578 28.4802 37.8362 29.8897 38.5673 31.1219L42.9716 38.7609C43.075 38.9293 43.1349 39.1207 43.1461 39.3179C43.1573 39.5152 43.1195 39.7121 43.0359 39.8911C42.96 40.0731 42.8407 40.2337 42.6884 40.359C42.5361 40.4842 42.3555 40.5703 42.1624 40.6098C36.53 41.8835 30.7743 42.5315 24.9998 42.5422C19.2254 42.532 13.4697 41.8839 7.83765 40.6098C7.64592 40.5667 7.467 40.4792 7.31535 40.3542C7.16371 40.2293 7.04358 40.0704 6.96468 39.8904C6.88578 39.7104 6.85032 39.5144 6.86116 39.3182C6.87201 39.122 6.92875 38.9311 7.02701 38.7609ZM24.9998 50.0001C23.3407 49.9983 21.7426 49.3747 20.5209 48.2523C19.2991 47.13 18.5424 45.5904 18.4001 43.9375C20.6169 44.1189 22.828 44.2166 24.9998 44.2166C27.1715 44.2166 29.3831 44.1189 31.5995 43.9375C31.4573 45.5905 30.7006 47.1301 29.4788 48.2525C28.257 49.3748 26.6588 49.9984 24.9998 50.0001Z" fill="#FC0005"/>
</g>
<defs>
<clipPath id="clip0_9022_283">
<rect width="50" height="50" fill="white" transform="translate(-0.000244141)"/>
</clipPath>
</defs>
</svg>
