<svg width="50" height="50" viewBox="0 0 50 50" fill="none" xmlns="http://www.w3.org/2000/svg">
<path fill-rule="evenodd" clip-rule="evenodd" d="M23.5059 18.6036L24.2383 19.336C25.0684 20.1563 26.416 20.1563 27.2363 19.336L37.1484 9.44341C37.9004 8.69146 37.9004 7.47076 37.1484 6.72857L36.1328 5.70318L45.0684 3.3106C45.6055 3.16412 46.1426 3.3106 46.5332 3.70123C46.9238 4.09185 47.0703 4.62896 46.9238 5.16607L44.5313 14.1016L43.5059 13.086C42.7539 12.334 41.543 12.334 40.791 13.086L30.8887 22.9883C28.0566 25.8204 23.4375 25.8204 20.6055 22.9883C20.459 22.8419 20.3027 22.6856 20.1563 22.5391C19.1699 21.5528 17.5684 21.5528 16.582 22.5391L7.41211 31.709C6.42578 32.6954 4.82422 32.6954 3.83789 31.709L3.75977 31.6309C2.77344 30.6446 2.77344 29.043 3.75977 28.0567L13.2129 18.6036C16.0547 15.7715 20.6738 15.7715 23.5059 18.6036Z" fill="#FFCC00"/>
<path fill-rule="evenodd" clip-rule="evenodd" d="M23.5058 18.6036L24.2383 19.336C25.0683 20.1563 26.416 20.1563 27.2363 19.336L37.1484 9.44341C37.9004 8.69146 37.9004 7.47076 37.1484 6.72857L36.1328 5.70318L45.0683 3.3106C45.6054 3.16412 46.1426 3.3106 46.5332 3.70123C40.6445 9.74615 35.8008 14.5899 32.0996 18.2813C29.707 20.6739 28.0078 21.9629 26.582 22.3438C21.123 23.8184 20.8984 14.209 11.9336 23.5352C9.79491 25.7618 5.92772 29.3946 3.72069 31.5723C2.79296 30.586 2.80272 29.0235 3.76952 28.0567L13.2226 18.6036C16.0547 15.7715 20.6738 15.7715 23.5058 18.6036Z" fill="#FFEC91"/>
<path fill-rule="evenodd" clip-rule="evenodd" d="M25 4.43359C29.6875 4.43359 33.8672 6.61133 36.5918 10L32.3145 14.2871C30.6543 12.0508 27.998 10.5957 25.0098 10.5957C19.9902 10.5957 15.9277 14.668 15.9277 19.6777C15.9277 24.6973 19.9902 28.7598 25.0098 28.7598C29.9902 28.7598 34.0332 24.7559 34.0918 19.7949L39.1504 14.7363C39.6094 16.1719 39.8633 17.6953 39.8633 19.2773C39.8633 26.7188 31.7871 39.2676 26.6211 45.9473C26.2207 46.4648 25.6641 46.7383 25.0195 46.7383C24.3652 46.7383 23.8086 46.4648 23.418 45.9473C18.2324 39.2676 10.1562 26.7188 10.1562 19.2773C10.1562 11.084 16.7969 4.43359 25 4.43359Z" fill="#F94640"/>
<path fill-rule="evenodd" clip-rule="evenodd" d="M25 4.43359C29.6875 4.43359 33.8672 6.61133 36.5918 10L32.3145 14.2871C30.6543 12.0508 27.998 10.5957 25.0098 10.5957C19.9902 10.5957 15.9277 14.668 15.9277 19.6777C15.9277 24.6973 19.9902 28.7598 25.0098 28.7598C29.9902 28.7598 34.0332 24.7559 34.0918 19.7949L39.1504 14.7363C39.6094 16.1719 39.8633 17.6953 39.8633 19.2773C39.8633 24.1895 36.3477 31.3184 32.4707 37.5195C28.418 36.0547 24.2188 33.4473 20.5078 29.8535C15.0391 24.5606 11.8848 18.3398 11.5039 13.1055C13.8379 7.98828 19.0039 4.43359 25 4.43359Z" fill="#FB8682"/>
<path d="M17.0215 16.211C19.4629 15.7814 21.9922 16.5431 23.7793 18.3302L24.5117 19.0626C25.1855 19.7364 26.2891 19.7364 26.9629 19.0626L31.7871 14.2384C28.5547 10.2052 22.5195 9.85362 18.8477 13.5255C18.0859 14.297 17.4609 15.2052 17.0215 16.211ZM36.6211 9.41417C37.0117 9.02355 37.3242 8.72081 37.3242 8.07628C37.3242 7.68566 37.1777 7.29503 36.875 6.9923L35.8594 5.97667C35.6543 5.77159 35.7324 5.39073 36.0547 5.32237L44.9707 2.9298C46.3867 2.54894 47.6855 3.84776 47.3047 5.26378L44.9121 14.1993C44.834 14.4923 44.4727 14.5802 44.2578 14.3751L43.2422 13.3595C42.6465 12.7638 41.6797 12.7638 41.084 13.3595L39.5801 14.8439C40.0195 16.2696 40.2344 17.7735 40.2344 19.2775C40.2344 27.2462 31.3379 40.4591 26.9043 46.1817C25.9277 47.4415 24.043 47.4415 23.0762 46.1817C19.5117 41.5626 14.6484 34.2775 11.9043 27.7638L7.68555 31.9825C6.54297 33.1153 4.69727 33.1153 3.56445 31.9825C2.94922 31.3673 2.63672 30.6739 2.63672 29.8439C2.63672 29.0919 2.91992 28.3497 3.48633 27.7833L9.93164 21.338C9.17969 16.5333 10.9863 11.7384 14.2188 8.50597C20.5371 2.18761 30.8594 2.64659 36.6211 9.41417ZM33.623 20.8009L31.1621 23.2618C29.668 24.756 27.7051 25.4982 25.7422 25.4982C23.7793 25.4982 21.8164 24.7462 20.3223 23.2618L19.873 22.8126C19.0527 21.9923 17.7148 21.9825 16.8848 22.7833C18.1543 26.0939 21.3477 28.3595 25 28.3595C29.3945 28.3692 33.0664 25.0978 33.623 20.8009ZM16.6211 21.9923C17.7637 21.1329 19.3945 21.2403 20.4297 22.2657L20.8789 22.715C22.2168 24.0528 23.9844 24.7267 25.7422 24.7267C27.5098 24.7267 29.2676 24.0528 30.6055 22.715L40.5176 12.8028C41.416 11.9044 42.8809 11.9044 43.7793 12.8028L44.3164 13.34L46.5332 5.0587C46.7578 4.21886 45.9961 3.45714 45.1562 3.68175L36.875 5.89855L37.4121 6.43566C38.3105 7.33409 38.3105 8.79894 37.4121 9.69737L27.5195 19.6192C26.543 20.5958 24.9414 20.5958 23.9648 19.6192L23.2324 18.8868C21.5039 17.1583 19.0332 16.504 16.709 17.0802C16.2109 18.6622 16.1719 20.381 16.6211 21.9923ZM12.3926 26.9044C12.4023 26.9239 12.4121 26.9435 12.4121 26.963C12.8809 28.1056 13.4082 29.2775 13.9941 30.4591C16.7871 36.0939 20.7227 41.8751 23.7012 45.713C24.3652 46.5724 25.6348 46.5724 26.2988 45.713C29.2676 41.8751 33.2031 36.0841 36.0059 30.4591C38.0371 26.3673 39.4629 22.3634 39.4629 19.2872C39.4629 17.9786 39.2969 16.7189 38.9551 15.4786L34.4727 19.961C34.3945 22.4903 33.3301 24.7657 31.6602 26.4259C27.9492 30.088 21.9922 30.0685 18.3105 26.3868C14.6191 22.6954 14.5898 16.6993 18.3105 12.9884C22.2852 9.00401 28.8086 9.36534 32.3535 13.7013L36.0742 9.98058C30.625 3.50597 20.791 3.06651 14.7852 9.06261C12.168 11.6798 10.5469 15.2931 10.5469 19.2872C10.5469 21.7189 11.4355 24.5411 12.3926 26.9044ZM10.1074 22.2755L4.04297 28.34C3.21289 29.17 3.21289 30.5275 4.04297 31.3575C4.50195 31.8165 5 32.0607 5.625 32.0607C6.17187 32.0607 6.71875 31.8458 7.12891 31.4357L11.582 26.9825C10.9277 25.3419 10.4199 23.7501 10.1074 22.2755Z" fill="black"/>
</svg>
