<svg width="50" height="50" viewBox="0 0 50 50" fill="none" xmlns="http://www.w3.org/2000/svg">
<g clip-path="url(#clip0_9022_211)">
<path d="M45.6406 13.371C43.152 16.3025 38.7572 16.6628 35.8244 14.1758C32.8916 11.6888 32.5315 7.29625 35.0201 4.36477C37.5087 1.43329 46.7256 1.63885 46.7256 1.63885C46.7256 1.63885 48.1292 10.4395 45.6406 13.371Z" fill="#FF6567"/>
<path d="M24.926 38.2151C17.6062 38.1779 11.712 32.2227 11.7492 24.9034C11.7864 17.5841 17.7408 11.689 25.0607 11.7262C32.3796 11.7634 38.2747 17.7187 38.2375 25.0381C38.2003 32.3573 32.2449 38.2523 24.926 38.2151Z" fill="#FF6567"/>
<path d="M32.3437 20.1895V29.8101C32.3437 30.8336 31.515 31.6622 30.4917 31.6622H19.5078C18.4845 31.6622 17.6559 30.8336 17.6559 29.8101V20.1895C17.6559 19.1661 18.4845 18.3374 19.5078 18.3374H30.4917C31.515 18.3374 32.3437 19.1661 32.3437 20.1895Z" fill="white"/>
<path d="M27.3155 18.3381V22.3802C27.3155 22.6935 26.9755 22.8885 26.7051 22.7303L25.204 21.8522C25.0775 21.7782 24.9209 21.7782 24.7944 21.8522L23.2932 22.7303C23.0229 22.8885 22.6829 22.6935 22.6829 22.3802V18.3381H27.3155Z" fill="white"/>
<path d="M47.9153 22.6691L43.9684 21.2394C43.7735 21.1691 43.6281 20.9975 43.5793 20.7806C43.5028 20.4424 43.4173 20.1071 43.3236 19.7753C43.241 19.482 42.9359 19.3125 42.6429 19.3947C42.3496 19.4777 42.1794 19.7825 42.2623 20.0755C42.351 20.3885 42.4314 20.7045 42.5032 21.0233C42.6346 21.6085 43.0421 22.0771 43.5929 22.2763L47.5397 23.706C47.8025 23.8011 47.9695 24.0528 47.9551 24.3318L47.7648 27.9975C47.7505 28.2764 47.5584 28.5091 47.2873 28.5766L43.2378 29.5872C42.6504 29.7341 42.1754 30.1861 41.9981 30.7681C41.624 31.996 41.1583 33.3955 40.3602 34.4629C39.9602 34.9989 39.86 35.7945 40.1225 36.3553L41.6872 39.6961C42.0361 40.4407 41.7748 40.6766 41.6889 40.7538L38.9636 43.2103C38.7553 43.3974 38.4555 43.4268 38.2157 43.2825L34.62 41.1207C34.1163 40.8177 33.4948 40.7958 32.9563 41.0626C31.6835 41.6934 30.3346 42.1713 28.9462 42.4833C28.3661 42.6136 27.9018 43.0175 27.7044 43.5632L26.1128 47.957L21.514 47.7186L20.3848 43.1938C20.243 42.624 19.8179 42.1695 19.2478 41.9767C17.9003 41.5218 16.6107 40.9071 15.4151 40.1492C14.9118 39.8311 14.2971 39.7877 13.7675 40.0347L10.2803 41.6665C9.53744 42.0144 9.30155 41.753 9.22435 41.6672L6.76751 38.9418C6.58046 38.7336 6.55137 38.4334 6.6957 38.1939L8.8567 34.6026C9.15972 34.0985 9.18162 33.4766 8.91558 32.9388C8.28441 31.6632 7.8069 30.3164 7.49598 28.9363C7.36421 28.3515 6.95744 27.8833 6.4074 27.6837L2.4595 26.2501C2.19705 26.1553 2.03046 25.9036 2.04483 25.6246L2.23511 21.9589C2.24947 21.68 2.44155 21.447 2.71262 21.3795L6.78294 20.367C7.35308 20.2255 7.80833 19.8001 8.00077 19.2296C8.45387 17.8875 9.06925 16.5965 9.83039 15.3923C10.1481 14.8889 10.1901 14.2735 9.94277 13.7465L8.31133 10.2628C8.08048 9.76949 8.08048 9.41441 8.31061 9.20689L11.036 6.74969C11.2432 6.56299 11.544 6.53355 11.7839 6.67788L15.3792 8.83924C15.8826 9.14226 16.5048 9.16416 17.0444 8.89669C18.3128 8.2673 19.6592 7.79016 21.0461 7.4778C21.6278 7.34711 22.0938 6.94212 22.2923 6.3946L23.6071 2.76983C23.8868 1.99827 24.2386 2.01551 24.3532 2.02269L28.0185 2.21298C28.2975 2.22734 28.5305 2.41978 28.598 2.69085L29.5289 6.43697C29.7386 7.28249 30.1249 7.77364 30.7446 7.9826C32.0921 8.43641 33.3842 9.05215 34.5852 9.81221C35.0882 10.13 35.7039 10.1727 36.2317 9.92567L39.7193 8.29388C40.4625 7.94633 40.698 8.20735 40.7752 8.29316L43.2321 11.0186C43.4191 11.2268 43.4482 11.5269 43.3042 11.7668L41.1429 15.3578C40.8398 15.8619 40.8179 16.4837 41.084 17.0215C41.219 17.2944 41.5496 17.4064 41.8229 17.2714C42.0961 17.1364 42.2077 16.8054 42.0727 16.5325C41.974 16.3329 41.9798 16.1064 42.0878 15.9265L44.2492 12.3351C44.6452 11.677 44.5655 10.8512 44.0514 10.2804L41.5945 7.55463C41.2739 7.19847 40.5422 6.69152 39.2518 7.29469L35.7646 8.92685C35.5779 9.01373 35.3578 8.99578 35.1747 8.88017C33.8994 8.07307 32.5275 7.41963 31.0972 6.9371C30.9798 6.8976 30.7615 6.82436 30.5996 6.17093L29.6686 2.4248C29.483 1.67874 28.8428 1.15096 28.0756 1.11147L24.4106 0.921185C23.9295 0.898207 23.0556 1.05474 22.5702 2.39393L21.2554 6.01834C21.1858 6.21042 21.017 6.35403 20.8041 6.40178C19.331 6.73316 17.9014 7.24012 16.5539 7.90863C16.354 8.00808 16.127 8.00234 15.9472 7.89427L12.3518 5.73255C11.6945 5.3369 10.8683 5.41624 10.2978 5.93038L7.57242 8.38722C7.21591 8.70819 6.70824 9.43954 7.31248 10.7306L8.94391 14.2143C9.0308 14.3995 9.01357 14.6196 8.89796 14.8031C8.09014 16.0812 7.43671 17.452 6.95596 18.877C6.88416 19.0896 6.72008 19.2461 6.51651 19.2971L2.44623 20.3092C1.70088 20.4948 1.17346 21.1346 1.13361 21.9022L0.943325 25.5676C0.903472 26.3341 1.3616 27.0256 2.08324 27.287L6.03114 28.7206C6.2261 28.7913 6.3715 28.9625 6.42033 29.1787C6.75028 30.6439 7.25723 32.0735 7.92683 33.4282C8.02556 33.6274 8.01981 33.854 7.91174 34.0339L5.75074 37.6249C5.35438 38.2833 5.43372 39.1091 5.94821 39.68L8.40505 42.4057C8.72602 42.7619 9.45773 43.2696 10.7477 42.6653L14.2346 41.0339C14.4206 40.947 14.6407 40.9646 14.8249 41.0809C16.0948 41.8859 17.4641 42.5386 18.8952 43.0218C19.1074 43.0936 19.2643 43.2573 19.3149 43.4606L20.5428 48.3818C20.6013 48.6169 20.807 48.7864 21.049 48.799L26.4636 49.0801C26.4732 49.0804 26.483 49.0808 26.4926 49.0808C26.7235 49.0808 26.9314 48.9361 27.0107 48.7168L28.7413 43.9388C28.8102 43.7485 28.9771 43.6067 29.1882 43.5593C30.6621 43.2279 32.0946 42.7206 33.446 42.051C33.646 41.9519 33.8714 41.9577 34.052 42.0661L37.6477 44.2282C38.3055 44.6231 39.1312 44.5437 39.7017 44.03L42.4271 41.5731C42.7836 41.2518 43.2913 40.5201 42.686 39.2283L41.1213 35.8875C41.0309 35.6944 41.0894 35.33 41.2438 35.1231C42.1482 33.9132 42.6519 32.4067 43.0529 31.0898C43.119 30.873 43.2881 30.7114 43.5049 30.6575L47.5544 29.6472C48.2994 29.4612 48.8265 28.8211 48.8663 28.0546L49.0566 24.3889C49.0965 23.6216 48.6376 22.9305 47.9153 22.6691Z" fill="#02166F"/>
<path d="M25.0637 11.1747C25.0396 11.1743 25.0166 11.1743 24.9926 11.1743C17.4185 11.1743 11.2363 17.3177 11.1976 24.9008C11.1591 32.5079 17.3165 38.7277 24.9233 38.7665H24.9944C32.5685 38.7658 38.7503 32.6235 38.789 25.0408C38.8275 17.4336 32.6701 11.2131 25.0637 11.1747ZM24.9944 37.6636C24.9728 37.6636 24.9506 37.6636 24.929 37.6636C17.9301 37.628 12.265 31.9051 12.3005 24.9065C12.3361 17.9291 18.0234 12.2773 24.9926 12.2773C25.0141 12.2773 25.0364 12.2773 25.0579 12.2776C32.0565 12.3132 37.7217 18.0361 37.6861 25.035C37.6506 32.0124 31.9632 37.6636 24.9944 37.6636Z" fill="#02166F"/>
<path d="M30.4919 17.7859H19.5081C18.1825 17.7859 17.1044 18.8641 17.1044 20.1896V29.8102C17.1044 31.1354 18.1825 32.2135 19.5081 32.2135H30.4919C31.8171 32.2135 32.8952 31.1354 32.8952 29.8102V20.1896C32.8952 18.864 31.8171 17.7859 30.4919 17.7859ZM26.7641 18.8899V22.1262L25.482 21.3758C25.1862 21.2033 24.8156 21.2007 24.5158 21.3762L23.2345 22.1262V18.8899H26.7641ZM31.7923 29.8102C31.7923 30.5272 31.2089 31.1106 30.4919 31.1106H19.5081C18.7907 31.1106 18.2073 30.5272 18.2073 29.8102V20.1896C18.2073 19.4722 18.7907 18.8888 19.5081 18.8888H22.1315V22.3804C22.1315 23.1158 22.9315 23.5793 23.5719 23.2065L24.9991 22.3714L26.4266 23.2065C27.0612 23.5766 27.867 23.1216 27.867 22.3804V18.8888H30.4919C31.2089 18.8888 31.7923 19.4723 31.7923 20.1896V29.8102Z" fill="#02166F"/>
<path d="M20.4046 26.8109H23.2927C23.5971 26.8109 23.8441 26.5639 23.8441 26.2595C23.8441 25.955 23.5971 25.708 23.2927 25.708H20.4046C20.1002 25.708 19.8531 25.955 19.8531 26.2595C19.8531 26.5639 20.1002 26.8109 20.4046 26.8109Z" fill="#02166F"/>
<path d="M26.2701 28.1143H20.4046C20.1002 28.1143 19.8531 28.3609 19.8531 28.6657C19.8531 28.9702 20.1002 29.2172 20.4046 29.2172H26.2701C26.5746 29.2172 26.8216 28.9702 26.8216 28.6657C26.8216 28.3609 26.5746 28.1143 26.2701 28.1143Z" fill="#02166F"/>
</g>
<defs>
<clipPath id="clip0_9022_211">
<rect width="50" height="50" fill="white"/>
</clipPath>
</defs>
</svg>
