<svg width="47" height="48" viewBox="0 0 47 48" fill="none" xmlns="http://www.w3.org/2000/svg">
<g clip-path="url(#clip0_9016_35)">
<path fill-rule="evenodd" clip-rule="evenodd" d="M18.8368 46.7472C26.1854 46.2333 32.0257 43.6394 31.8392 40.9715C31.6526 38.3036 25.5081 36.5477 18.1595 37.0616C10.8109 37.5755 4.97051 40.1686 5.15712 42.8373C5.34374 45.506 11.4882 47.261 18.8368 46.7472Z" fill="#DAEAFA"/>
<path fill-rule="evenodd" clip-rule="evenodd" d="M18.4982 41.9043C13.0194 36.2649 2.85108 25.9973 2.38758 18.1739C2.17156 14.5304 3.31799 10.807 5.8854 7.85356C8.49109 4.85605 12.0821 3.19816 15.7735 2.94003C19.465 2.6819 23.2543 3.82371 26.2493 6.42958C29.2027 8.99699 30.8562 12.5245 31.1494 16.1627C31.7792 23.9745 23.1413 35.5571 18.4982 41.9043Z" fill="#FF4646"/>
<path fill-rule="evenodd" clip-rule="evenodd" d="M17.3588 25.6099C21.9247 25.2907 25.3875 21.3071 25.0683 16.7413C24.7492 12.1779 20.7655 8.71255 16.1996 9.03182C11.6337 9.3511 8.17105 13.3372 8.49015 17.9005C8.80949 22.4672 12.793 25.9292 17.3588 25.6099Z" fill="#DAEAFA"/>
<path fill-rule="evenodd" clip-rule="evenodd" d="M36.8836 25.2096L33.8343 26.2602L36.5581 34.1675L39.6049 33.1171L36.8836 25.2096Z" fill="#DAEAFA"/>
<path fill-rule="evenodd" clip-rule="evenodd" d="M31.2953 4.83359C24.9892 5.27456 20.2337 10.7423 20.6747 17.0485C21.1156 23.3547 26.586 28.11 32.8921 27.669C39.1983 27.228 43.9536 21.7577 43.5126 15.4515C43.0717 9.14535 37.6015 4.39262 31.2953 4.83359Z" fill="#2F5274"/>
<path fill-rule="evenodd" clip-rule="evenodd" d="M39.5452 30.76L35.1533 32.2731C34.7907 32.3984 34.5962 32.7954 34.7215 33.1579L37.6415 41.64C38.1812 43.2114 39.9105 44.0528 41.4794 43.5132C43.0507 42.9709 43.8922 41.2442 43.3524 39.6727L40.4327 31.1932C40.3074 30.8307 39.9077 30.6338 39.5452 30.76Z" fill="#FF4646"/>
<path fill-rule="evenodd" clip-rule="evenodd" d="M25.4246 10.4551C22.2241 14.1369 22.6144 19.7186 26.2962 22.9191C29.9805 26.1195 35.5597 25.7293 38.7628 22.0474C41.9633 18.3656 41.573 12.7839 37.8912 9.58338C34.2068 6.38134 28.6276 6.77148 25.4246 10.4551Z" fill="#8BD7FA"/>
<path d="M31.1057 12.2857C31.0784 11.8948 31.3718 11.5564 31.7635 11.529C32.1545 11.5017 32.4929 11.7959 32.5202 12.1868L32.7517 15.4968L36.0591 15.2655C36.45 15.2382 36.7885 15.5324 36.8156 15.9208C36.843 16.3117 36.5487 16.6501 36.1578 16.6775L32.1432 16.9582C31.7523 16.9855 31.4138 16.6913 31.3865 16.3004L31.1057 12.2857Z" fill="#DAEAFA"/>
<path fill-rule="evenodd" clip-rule="evenodd" d="M18.7794 25.3891C14.8339 24.9836 11.6345 21.7933 11.3483 17.7015C11.0623 13.6114 13.7865 10.0052 17.6374 9.05705C17.1679 9.0089 16.6882 8.99851 16.1996 9.03268C11.6217 9.35279 8.16997 13.3226 8.49015 17.9014C8.81033 22.4801 12.7809 25.9309 17.3588 25.6108C17.8474 25.5758 18.3203 25.5013 18.7794 25.3891Z" fill="#C4D3E1"/>
<path fill-rule="evenodd" clip-rule="evenodd" d="M14.3101 37.5375C8.86721 38.5211 5.00415 40.6494 5.15708 42.8364C5.34417 45.5119 11.4693 47.2614 18.8367 46.7463C19.3202 46.7125 19.7962 46.6697 20.264 46.6198C13.5487 46.8283 8.19012 45.1372 8.01526 42.6365C7.88715 40.8045 10.5772 39.014 14.6536 37.9037C14.54 37.7824 14.4239 37.6613 14.3101 37.5375Z" fill="#C4D3E1"/>
<path fill-rule="evenodd" clip-rule="evenodd" d="M25.0205 18.4004C24.738 17.3287 24.6596 16.2082 24.7901 15.105C24.9907 13.4034 25.6878 11.7428 26.8948 10.3524C27.3804 9.7938 27.9228 9.30877 28.5027 8.90382C29.6271 8.11706 30.9016 7.61788 32.2158 7.41571C30.7983 7.39767 29.382 7.71639 28.0989 8.3652C27.1106 8.86677 26.1972 9.56555 25.4246 10.4543C24.7508 11.2294 24.2347 12.0908 23.8758 12.9946C22.8942 15.4779 23.0912 18.295 24.4087 20.615C24.8901 21.4626 25.5209 22.242 26.2961 22.9175C27.203 23.7035 28.2225 24.2749 29.295 24.6323C30.6375 25.0803 32.0617 25.1935 33.4442 24.9823C32.1094 24.9636 30.776 24.6459 29.5502 24.0192C28.9222 23.6996 28.3231 23.2995 27.7664 22.8156C26.3776 21.6075 25.4562 20.0601 25.0205 18.4004Z" fill="#7DC2E1"/>
<path fill-rule="evenodd" clip-rule="evenodd" d="M35.8514 33.0789C35.7744 32.8526 35.8212 32.6098 35.9576 32.4289C36.0381 32.3233 36.1494 32.2397 36.2857 32.1931L36.9561 31.961L36.8609 31.6843L35.8262 32.0401L35.1541 32.2723C34.7916 32.3975 34.5971 32.7945 34.7223 33.157L37.6423 41.6391C38.16 43.1415 39.7622 43.9771 41.2745 43.5758C40.1615 43.4409 39.1612 42.6881 38.7722 41.5601L35.8514 33.0789Z" fill="#E63F3F"/>
<path fill-rule="evenodd" clip-rule="evenodd" d="M34.2598 27.4907L35.8254 32.0409L36.8601 31.6852L35.3281 27.2334C34.9786 27.3353 34.6211 27.4215 34.2598 27.4907Z" fill="#C4D3E1"/>
</g>
<defs>
<clipPath id="clip0_9016_35">
<rect width="44" height="44" fill="white" transform="translate(0 4) rotate(-4)"/>
</clipPath>
</defs>
</svg>
