<svg width="34" height="34" viewBox="0 0 34 34" fill="none" xmlns="http://www.w3.org/2000/svg">
<path d="M2.65625 9.5625H31.3438V31.3438H2.65625V9.5625Z" fill="#FFED86"/>
<path d="M3.71875 9.5625H31.3438V31.3438H3.71875V9.5625Z" fill="#FFDC52"/>
<path d="M31.3438 11.1562H2.65625V13.9188C2.92949 14.1539 3.25131 14.3257 3.5987 14.422C3.94608 14.5183 4.31045 14.5367 4.66576 14.4758C5.02106 14.4148 5.35851 14.2762 5.65399 14.0697C5.94947 13.8632 6.19567 13.594 6.375 13.2812C6.58907 13.6559 6.89837 13.9672 7.27155 14.1838C7.64473 14.4004 8.06853 14.5144 8.5 14.5144C8.93147 14.5144 9.35527 14.4004 9.72845 14.1838C10.1016 13.9672 10.4109 13.6559 10.625 13.2812C10.8391 13.6559 11.1484 13.9672 11.5215 14.1838C11.8947 14.4004 12.3185 14.5144 12.75 14.5144C13.1815 14.5144 13.6053 14.4004 13.9785 14.1838C14.3516 13.9672 14.6609 13.6559 14.875 13.2812C15.0891 13.6559 15.3984 13.9672 15.7715 14.1838C16.1447 14.4004 16.5685 14.5144 17 14.5144C17.4315 14.5144 17.8553 14.4004 18.2285 14.1838C18.6016 13.9672 18.9109 13.6559 19.125 13.2812C19.3391 13.6559 19.6484 13.9672 20.0215 14.1838C20.3947 14.4004 20.8185 14.5144 21.25 14.5144C21.6815 14.5144 22.1053 14.4004 22.4785 14.1838C22.8516 13.9672 23.1609 13.6559 23.375 13.2812C23.5891 13.6559 23.8984 13.9672 24.2715 14.1838C24.6447 14.4004 25.0685 14.5144 25.5 14.5144C25.9315 14.5144 26.3553 14.4004 26.7285 14.1838C27.1016 13.9672 27.4109 13.6559 27.625 13.2812C27.8043 13.594 28.0505 13.8632 28.346 14.0697C28.6415 14.2762 28.9789 14.4148 29.3342 14.4758C29.6895 14.5367 30.0539 14.5183 30.4013 14.422C30.7487 14.3257 31.0705 14.1539 31.3438 13.9188V11.1562Z" fill="#FFDC52"/>
<path d="M23.375 11.1562H3.71875V14.4426C4.22753 14.5612 4.76103 14.5123 5.23971 14.303C5.71839 14.0937 6.11661 13.7353 6.375 13.2812C6.58907 13.6559 6.89837 13.9672 7.27155 14.1838C7.64473 14.4004 8.06853 14.5144 8.5 14.5144C8.93147 14.5144 9.35527 14.4004 9.72845 14.1838C10.1016 13.9672 10.4109 13.6559 10.625 13.2812C10.8391 13.6559 11.1484 13.9672 11.5215 14.1838C11.8947 14.4004 12.3185 14.5144 12.75 14.5144C13.1815 14.5144 13.6053 14.4004 13.9785 14.1838C14.3516 13.9672 14.6609 13.6559 14.875 13.2812C15.0891 13.6559 15.3984 13.9672 15.7715 14.1838C16.1447 14.4004 16.5685 14.5144 17 14.5144C17.4315 14.5144 17.8553 14.4004 18.2285 14.1838C18.6016 13.9672 18.9109 13.6559 19.125 13.2812C19.3391 13.6559 19.6484 13.9672 20.0215 14.1838C20.3947 14.4004 20.8185 14.5144 21.25 14.5144C21.6815 14.5144 22.1053 14.4004 22.4785 14.1838C22.8516 13.9672 23.1609 13.6559 23.375 13.2812C23.5891 13.6559 23.8984 13.9672 24.2715 14.1838C24.6447 14.4004 25.0685 14.5144 25.5 14.5144C25.9315 14.5144 26.3553 14.4004 26.7285 14.1838C27.1016 13.9672 27.4109 13.6559 27.625 13.2812C27.8043 13.594 28.0505 13.8632 28.346 14.0697C28.6415 14.2762 28.9789 14.4148 29.3342 14.4758C29.6895 14.5367 30.0539 14.5183 30.4013 14.422C30.7487 14.3257 31.0705 14.1539 31.3438 13.9188V11.1562H23.375Z" fill="#FCC338"/>
<path d="M5.84375 0.53125H28.1562V3.71875H5.84375V0.53125Z" fill="#BEDFFF"/>
<path d="M6.90625 1.59375H28.1562V3.71875H6.90625V1.59375Z" fill="#A4D2FF"/>
<path d="M1.59375 31.3438H32.4062V33.4688H1.59375V31.3438Z" fill="#8C9BB0"/>
<path d="M2.65625 32.4062H32.4062V33.4688H2.65625V32.4062Z" fill="#788CA3"/>
<path d="M31.875 12.2188C31.6609 12.5934 31.3516 12.9047 30.9785 13.1213C30.6053 13.3379 30.1815 13.4519 29.75 13.4519C29.3185 13.4519 28.8947 13.3379 28.5215 13.1213C28.1484 12.9047 27.8391 12.5934 27.625 12.2188V10.0938H31.875V12.2188Z" fill="#FF4F62"/>
<path d="M27.625 12.2188C27.4109 12.5934 27.1016 12.9047 26.7285 13.1213C26.3553 13.3379 25.9315 13.4519 25.5 13.4519C25.0685 13.4519 24.6447 13.3379 24.2715 13.1213C23.8984 12.9047 23.5891 12.5934 23.375 12.2188V10.0938H27.625V12.2188Z" fill="#E1EAFF"/>
<path d="M23.375 12.2188C23.1609 12.5934 22.8516 12.9047 22.4785 13.1213C22.1053 13.3379 21.6815 13.4519 21.25 13.4519C20.8185 13.4519 20.3947 13.3379 20.0215 13.1213C19.6484 12.9047 19.3391 12.5934 19.125 12.2188V10.0938H23.375V12.2188Z" fill="#FF4F62"/>
<path d="M19.125 12.2188C18.9109 12.5934 18.6016 12.9047 18.2285 13.1213C17.8553 13.3379 17.4315 13.4519 17 13.4519C16.5685 13.4519 16.1447 13.3379 15.7715 13.1213C15.3984 12.9047 15.0891 12.5934 14.875 12.2188V10.0938H19.125V12.2188Z" fill="#E1EAFF"/>
<path d="M14.875 12.2188C14.6609 12.5934 14.3516 12.9047 13.9785 13.1213C13.6053 13.3379 13.1815 13.4519 12.75 13.4519C12.3185 13.4519 11.8947 13.3379 11.5215 13.1213C11.1484 12.9047 10.8391 12.5934 10.625 12.2188V10.0938H14.875V12.2188Z" fill="#FF4F62"/>
<path d="M10.625 12.2188C10.4109 12.5934 10.1016 12.9047 9.72845 13.1213C9.35527 13.3379 8.93147 13.4519 8.5 13.4519C8.06853 13.4519 7.64473 13.3379 7.27155 13.1213C6.89837 12.9047 6.58907 12.5934 6.375 12.2188V10.0938H10.625V12.2188Z" fill="#E1EAFF"/>
<path d="M6.375 12.2188C6.16093 12.5934 5.85163 12.9047 5.47845 13.1213C5.10527 13.3379 4.68147 13.4519 4.25 13.4519C3.81853 13.4519 3.39473 13.3379 3.02155 13.1213C2.64837 12.9047 2.33907 12.5934 2.125 12.2188V10.0938H6.375V12.2188Z" fill="#FF809C"/>
<path d="M3.1875 12.75C3.32683 12.9922 3.50649 13.2089 3.71875 13.3907C4.22865 13.5066 4.76231 13.4551 5.24072 13.2441C5.71913 13.033 6.11685 12.6735 6.375 12.2188V10.0938H3.1875V12.75Z" fill="#FF4F62"/>
<path d="M28.9839 3.71875H5.01606C4.79279 3.71847 4.57511 3.78854 4.39392 3.91899C4.21273 4.04945 4.07724 4.23367 4.00669 4.4455L2.125 10.0938H31.875L29.9923 4.4455C29.9218 4.23384 29.7864 4.04975 29.6054 3.91931C29.4245 3.78886 29.207 3.7187 28.9839 3.71875Z" fill="#FFA4B8"/>
<path d="M4.71591 5.508L3.1875 10.0938H31.875L30.1043 4.78125H5.72422C5.50113 4.7812 5.28369 4.85136 5.10271 4.9818C4.92173 5.11225 4.7864 5.29634 4.71591 5.508Z" fill="#FF809C"/>
<path d="M15.1783 3.71875L14.875 10.0938H19.125L18.8217 3.71875H15.1783Z" fill="#FBFCFF"/>
<path d="M7.89278 3.71875L6.375 10.0938H10.625L11.5356 3.71875H7.89278Z" fill="#FBFCFF"/>
<path d="M22.4644 3.71875L23.375 10.0938H27.625L26.1072 3.71875H22.4644Z" fill="#FBFCFF"/>
<path d="M15.1279 4.78125L14.875 10.0938H19.125L18.8721 4.78125H15.1279Z" fill="#F0F4FF"/>
<path d="M7.63991 4.78125L6.375 10.0938H10.625L11.3842 4.78125H7.63991Z" fill="#F0F4FF"/>
<path d="M22.6158 4.78125L23.375 10.0938H27.625L26.3601 4.78125H22.6158Z" fill="#F0F4FF"/>
<path d="M5.3125 20.7188H12.2188V31.3438H5.3125V20.7188Z" fill="#A06B40"/>
<path d="M6.375 21.7812H12.2188V31.3438H6.375V21.7812Z" fill="#AA7A4C"/>
<path d="M14.875 15.4062H28.6875V29.2188H14.875V15.4062Z" fill="#85C4F9"/>
<path d="M15.9375 16.4688H28.6875V29.2188H15.9375V16.4688Z" fill="#A4D2FF"/>
<path d="M5.3125 15.9375H12.2188V18.5938H5.3125V15.9375Z" fill="#85C4F9"/>
<path d="M6.375 17H12.2188V18.5938H6.375V17Z" fill="#A4D2FF"/>
<path d="M24.9688 23.375H19.6562L19.125 19.6562H26.0312L24.9688 23.375Z" fill="#F0F4FF"/>
<path d="M32.4062 30.8125H31.875V13.0937C32.0539 12.9102 32.2088 12.7047 32.3361 12.4823C32.3822 12.4021 32.4064 12.3112 32.4062 12.2188V10.0938C32.4063 10.0367 32.3971 9.98002 32.3792 9.92587L30.4964 4.27709C30.3906 3.95979 30.1877 3.68383 29.9163 3.48827C29.6449 3.29272 29.3189 3.18749 28.9845 3.1875H28.6875V0.53125C28.6875 0.390354 28.6315 0.255228 28.5319 0.1556C28.4323 0.0559708 28.2971 0 28.1562 0L5.84375 0C5.70285 0 5.56773 0.0559708 5.4681 0.1556C5.36847 0.255228 5.3125 0.390354 5.3125 0.53125V3.1875H5.01553C4.68151 3.18805 4.3561 3.29353 4.08528 3.48905C3.81446 3.68456 3.61191 3.96022 3.50625 4.27709L1.62084 9.92587C1.60286 9.98002 1.59371 10.0367 1.59375 10.0938V12.2188C1.59325 12.3119 1.61745 12.4036 1.66387 12.4844C1.79132 12.7061 1.94625 12.9108 2.125 13.0937V30.8125H1.59375C1.45285 30.8125 1.31773 30.8685 1.2181 30.9681C1.11847 31.0677 1.0625 31.2029 1.0625 31.3438V33.4688C1.0625 33.6096 1.11847 33.7448 1.2181 33.8444C1.31773 33.944 1.45285 34 1.59375 34H32.4062C32.5471 34 32.6823 33.944 32.7819 33.8444C32.8815 33.7448 32.9375 33.6096 32.9375 33.4688V31.3438C32.9375 31.2029 32.8815 31.0677 32.7819 30.9681C32.6823 30.8685 32.5471 30.8125 32.4062 30.8125ZM12.2188 20.1875H5.3125C5.1716 20.1875 5.03648 20.2435 4.93685 20.3431C4.83722 20.4427 4.78125 20.5779 4.78125 20.7188V30.8125H3.1875V13.7865C3.5268 13.9159 3.88684 13.9825 4.25 13.983C4.64581 13.9854 5.03802 13.9078 5.40316 13.755C5.76829 13.6022 6.09883 13.3773 6.375 13.0937C6.65259 13.3754 6.9834 13.5991 7.34821 13.7517C7.71302 13.9044 8.10454 13.983 8.5 13.983C8.89546 13.983 9.28698 13.9044 9.65179 13.7517C10.0166 13.5991 10.3474 13.3754 10.625 13.0937C10.9026 13.3754 11.2334 13.5991 11.5982 13.7517C11.963 13.9044 12.3545 13.983 12.75 13.983C13.1455 13.983 13.537 13.9044 13.9018 13.7517C14.2666 13.5991 14.5974 13.3754 14.875 13.0937C15.1526 13.3754 15.4834 13.5991 15.8482 13.7517C16.213 13.9044 16.6045 13.983 17 13.983C17.3955 13.983 17.787 13.9044 18.1518 13.7517C18.5166 13.5991 18.8474 13.3754 19.125 13.0937C19.4026 13.3754 19.7334 13.5991 20.0982 13.7517C20.463 13.9044 20.8545 13.983 21.25 13.983C21.6455 13.983 22.037 13.9044 22.4018 13.7517C22.7666 13.5991 23.0974 13.3754 23.375 13.0937C23.6526 13.3754 23.9834 13.5991 24.3482 13.7517C24.713 13.9044 25.1045 13.983 25.5 13.983C25.8955 13.983 26.287 13.9044 26.6518 13.7517C27.0166 13.5991 27.3474 13.3754 27.625 13.0937C27.9012 13.3773 28.2317 13.6022 28.5968 13.755C28.962 13.9078 29.3542 13.9854 29.75 13.983C30.1132 13.9825 30.4732 13.9159 30.8125 13.7865V30.8125H12.75V20.7188C12.75 20.5779 12.694 20.4427 12.5944 20.3431C12.4948 20.2435 12.3596 20.1875 12.2188 20.1875ZM11.6875 21.25V30.8125H5.84375V21.25H11.6875ZM10.0938 10.625V12.0689C9.91855 12.3309 9.68146 12.5457 9.40347 12.6942C9.12549 12.8427 8.81517 12.9204 8.5 12.9204C8.18483 12.9204 7.87451 12.8427 7.59653 12.6942C7.31854 12.5457 7.08145 12.3309 6.90625 12.0689V10.625H10.0938ZM7.04756 9.5625L8.31247 4.25H10.9236L10.1644 9.5625H7.04756ZM14.3438 10.625V12.0689C14.1685 12.3309 13.9315 12.5457 13.6535 12.6942C13.3755 12.8427 13.0652 12.9204 12.75 12.9204C12.4348 12.9204 12.1245 12.8427 11.8465 12.6942C11.5685 12.5457 11.3315 12.3309 11.1562 12.0689V10.625H14.3438ZM11.2375 9.5625L11.9962 4.25H14.6211L14.3682 9.5625H11.2375ZM18.5938 10.625V12.0689C18.4185 12.3309 18.1815 12.5457 17.9035 12.6942C17.6255 12.8427 17.3152 12.9204 17 12.9204C16.6848 12.9204 16.3745 12.8427 16.0965 12.6942C15.8185 12.5457 15.5815 12.3309 15.4062 12.0689V10.625H18.5938ZM15.4323 9.5625L15.6852 4.25H18.3148L18.5677 9.5625H15.4323ZM19.6318 9.5625L19.3789 4.25H22.0038L22.7625 9.5625H19.6318ZM22.8438 10.625V12.0689C22.6685 12.3309 22.4315 12.5457 22.1535 12.6942C21.8755 12.8427 21.5652 12.9204 21.25 12.9204C20.9348 12.9204 20.6245 12.8427 20.3465 12.6942C20.0685 12.5457 19.8315 12.3309 19.6562 12.0689V10.625H22.8438ZM23.8356 9.5625L23.0764 4.25H25.6875L26.9524 9.5625H23.8356ZM27.0938 10.625V12.0689C26.9185 12.3309 26.6815 12.5457 26.4035 12.6942C26.1255 12.8427 25.8152 12.9204 25.5 12.9204C25.1848 12.9204 24.8745 12.8427 24.5965 12.6942C24.3185 12.5457 24.0815 12.3309 23.9062 12.0689V10.625H27.0938ZM29.75 12.9205C29.4345 12.923 29.1235 12.8465 28.8451 12.698C28.5668 12.5496 28.33 12.3339 28.1562 12.0705V10.625H31.3438V12.0689C31.1702 12.3326 30.9335 12.5486 30.6551 12.6973C30.3768 12.8461 30.0656 12.9228 29.75 12.9205ZM28.9845 4.25C29.0959 4.25008 29.2045 4.28522 29.2949 4.35043C29.3853 4.41565 29.4529 4.50763 29.4881 4.61338L31.1382 9.5625H28.0447L26.7798 4.25H28.9845ZM6.375 1.0625H27.625V3.1875H6.375V1.0625ZM4.51191 4.61338C4.54713 4.50763 4.61471 4.41565 4.70509 4.35043C4.79547 4.28522 4.90408 4.25008 5.01553 4.25H7.22022L5.95531 9.5625H2.86184L4.51191 4.61338ZM2.65625 10.625H5.84375V12.0689C5.66855 12.3309 5.43146 12.5457 5.15347 12.6942C4.87549 12.8427 4.56517 12.9204 4.25 12.9204C3.93483 12.9204 3.62451 12.8427 3.34653 12.6942C3.06854 12.5457 2.83145 12.3309 2.65625 12.0689V10.625ZM31.875 32.9375H2.125V31.875H31.875V32.9375Z" fill="black"/>
<path d="M10.0938 27.0938C10.2346 27.0938 10.3698 27.0378 10.4694 26.9382C10.569 26.8385 10.625 26.7034 10.625 26.5625V25.5C10.625 25.3591 10.569 25.224 10.4694 25.1243C10.3698 25.0247 10.2346 24.9688 10.0938 24.9688C9.95285 24.9688 9.81773 25.0247 9.7181 25.1243C9.61847 25.224 9.5625 25.3591 9.5625 25.5V26.5625C9.5625 26.7034 9.61847 26.8385 9.7181 26.9382C9.81773 27.0378 9.95285 27.0938 10.0938 27.0938Z" fill="black"/>
<path d="M12.75 15.9375C12.75 15.7966 12.694 15.6615 12.5944 15.5618C12.4948 15.4622 12.3596 15.4062 12.2188 15.4062H5.3125C5.1716 15.4062 5.03648 15.4622 4.93685 15.5618C4.83722 15.6615 4.78125 15.7966 4.78125 15.9375V18.5938C4.78125 18.7346 4.83722 18.8698 4.93685 18.9694C5.03648 19.069 5.1716 19.125 5.3125 19.125H12.2188C12.3596 19.125 12.4948 19.069 12.5944 18.9694C12.694 18.8698 12.75 18.7346 12.75 18.5938V15.9375ZM11.6875 18.0625H5.84375V16.4688H11.6875V18.0625Z" fill="black"/>
<path d="M14.875 29.75H28.6875C28.8284 29.75 28.9635 29.694 29.0632 29.5944C29.1628 29.4948 29.2188 29.3596 29.2188 29.2188V15.4062C29.2188 15.2654 29.1628 15.1302 29.0632 15.0306C28.9635 14.931 28.8284 14.875 28.6875 14.875H14.875C14.7341 14.875 14.599 14.931 14.4993 15.0306C14.3997 15.1302 14.3438 15.2654 14.3438 15.4062V29.2188C14.3438 29.3596 14.3997 29.4948 14.4993 29.5944C14.599 29.694 14.7341 29.75 14.875 29.75ZM15.4062 15.9375H28.1562V28.6875H15.4062V15.9375Z" fill="black"/>
<path d="M26.0312 19.125H19.5893L19.4299 17.9876C19.4119 17.8606 19.3484 17.7444 19.2514 17.6605C19.1543 17.5767 19.0302 17.5307 18.9019 17.5313H17.5312C17.3904 17.5313 17.2552 17.5872 17.1556 17.6869C17.056 17.7865 17 17.9216 17 18.0625C17 18.2034 17.056 18.3385 17.1556 18.4382C17.2552 18.5378 17.3904 18.5938 17.5312 18.5938H18.4408L19.0607 22.9617C18.7191 23.101 18.4363 23.3545 18.2607 23.679C18.0851 24.0035 18.0275 24.3789 18.0978 24.7411C18.1681 25.1033 18.3618 25.4299 18.646 25.6652C18.9302 25.9005 19.2873 26.0298 19.6562 26.0313V26.5625C19.6562 26.7034 19.7122 26.8385 19.8118 26.9382C19.9115 27.0378 20.0466 27.0938 20.1875 27.0938C20.3284 27.0938 20.4635 27.0378 20.5632 26.9382C20.6628 26.8385 20.7188 26.7034 20.7188 26.5625V26.0313H23.9062V26.5625C23.9062 26.7034 23.9622 26.8385 24.0618 26.9382C24.1615 27.0378 24.2966 27.0938 24.4375 27.0938C24.5784 27.0938 24.7135 27.0378 24.8132 26.9382C24.9128 26.8385 24.9688 26.7034 24.9688 26.5625V26.0313C25.1096 26.0313 25.2448 25.9753 25.3444 25.8757C25.444 25.776 25.5 25.6409 25.5 25.5C25.5 25.3591 25.444 25.224 25.3444 25.1244C25.2448 25.0247 25.1096 24.9688 24.9688 24.9688H19.6562C19.5154 24.9688 19.3802 24.9128 19.2806 24.8132C19.181 24.7135 19.125 24.5784 19.125 24.4375C19.125 24.2966 19.181 24.1615 19.2806 24.0619C19.3802 23.9622 19.5154 23.9063 19.6562 23.9063H24.9688C25.0842 23.9062 25.1965 23.8685 25.2886 23.7989C25.3807 23.7293 25.4476 23.6316 25.4793 23.5206L26.5418 19.8018C26.5643 19.7228 26.5682 19.6396 26.5531 19.5589C26.538 19.4781 26.5045 19.4019 26.455 19.3363C26.4055 19.2707 26.3415 19.2175 26.268 19.1808C26.1944 19.1442 26.1134 19.1251 26.0312 19.125ZM24.5682 22.8438H20.1174L19.7402 20.1875H25.3268L24.5682 22.8438Z" fill="black"/>
</svg>
