<svg width="34" height="34" viewBox="0 0 34 34" fill="none" xmlns="http://www.w3.org/2000/svg">
<g clip-path="url(#clip0_9057_114)">
<path d="M33.9358 15.8276L30.676 11.3745C30.6134 11.289 30.5138 11.2385 30.4079 11.2385H24.9582L26.4212 5.7767C26.4778 5.56565 26.3187 5.3584 26.1002 5.3584H6.73086C6.58043 5.3584 6.44877 5.45944 6.40984 5.60474L5.09631 10.5086C5.05248 10.4969 5.00667 10.4901 4.95918 10.4901H1.76388C1.47021 10.4901 1.23216 10.7282 1.23216 11.0218C1.23216 11.3155 1.47021 11.5535 1.76388 11.5535H4.81641L4.47801 12.8169H1.15531C0.861641 12.8169 0.623595 13.055 0.623595 13.3486C0.623595 13.6422 0.861641 13.8803 1.15531 13.8803H4.19316L3.84976 15.1623C3.80572 15.1505 3.75968 15.1437 3.71192 15.1437H0.531715C0.238046 15.1437 0 15.3817 0 15.6754C0 15.969 0.238046 16.2071 0.531715 16.2071H3.56991L1.17694 25.1407C1.12041 25.3518 1.27944 25.559 1.49795 25.559H4.45587C4.42422 25.7201 4.40718 25.8863 4.40718 26.0564C4.40718 27.4808 5.56773 28.6413 6.99206 28.6413C8.41451 28.6413 9.57508 27.4808 9.57508 26.0564C9.57508 25.8863 9.55804 25.7201 9.52638 25.559H23.3038C23.2721 25.7201 23.2551 25.8863 23.2551 26.0564C23.2551 27.4808 24.4156 28.6413 25.84 28.6413C27.2624 28.6413 28.423 27.4808 28.423 26.0564C28.423 25.8863 28.4059 25.7201 28.3743 25.559H31.2031C31.3535 25.559 31.4852 25.458 31.5241 25.3127L33.9887 16.1099C34.0147 16.0127 33.9953 15.9089 33.9358 15.8276Z" fill="#F8CB66"/>
<path d="M26.1002 5.3584H25.0958L21.0842 20.3347C21.0403 20.4988 20.8915 20.613 20.7216 20.613H2.38973L2.30737 20.9205C2.25083 21.1316 2.40987 21.3388 2.62838 21.3388H21.9978C22.1482 21.3388 22.2798 21.2378 22.3188 21.0925L26.4213 5.77671C26.4778 5.56565 26.3187 5.3584 26.1002 5.3584Z" fill="#EABD63"/>
<path d="M33.9358 15.8275L30.676 11.3743C30.6134 11.2888 30.5138 11.2383 30.4079 11.2383H24.9582L22.3187 21.0923C22.2798 21.2376 22.1482 21.3386 21.9977 21.3386H2.62837C2.40986 21.3386 2.25082 21.1313 2.30735 20.9203L1.17693 25.1405C1.1204 25.3516 1.27944 25.5588 1.49795 25.5588H4.45587C4.68897 24.373 5.73805 23.4732 6.99206 23.4732C8.2444 23.4732 9.2933 24.373 9.52638 25.5588H23.3038C23.5369 24.373 24.586 23.4732 25.84 23.4732C27.0923 23.4732 28.1412 24.373 28.3743 25.5588H31.2031C31.3535 25.5588 31.4852 25.4578 31.5241 25.3125L33.9887 16.1097C34.0147 16.0125 33.9953 15.9087 33.9358 15.8275Z" fill="#EC5E5C"/>
<path d="M24.7753 19.0025H31.4951C31.6456 19.0025 31.7773 18.9015 31.8162 18.7562L32.4475 16.3981C32.4736 16.3009 32.4541 16.197 32.3946 16.1158L29.9582 12.7893C29.8956 12.7038 29.796 12.6533 29.6901 12.6533H26.2985C26.148 12.6533 26.0164 12.7543 25.9775 12.8996L24.4543 18.5842C24.3977 18.7953 24.5567 19.0025 24.7753 19.0025Z" fill="#E4F6FF"/>
<path d="M6.99206 28.6415C8.41451 28.6415 9.57507 27.481 9.57507 26.0566C9.57507 24.6342 8.4145 23.4736 6.99206 23.4736C5.56773 23.4736 4.40717 24.6342 4.40717 26.0566C4.40716 27.481 5.56773 28.6415 6.99206 28.6415Z" fill="#788F9B"/>
<path d="M25.84 28.6415C27.2624 28.6415 28.423 27.481 28.423 26.0566C28.423 24.6342 27.2624 23.4736 25.84 23.4736C24.4156 23.4736 23.2551 24.6342 23.2551 26.0566C23.2551 27.481 24.4156 28.6415 25.84 28.6415Z" fill="#788F9B"/>
<path d="M6.99207 23.4736C6.87009 23.4736 6.75024 23.4828 6.63269 23.4992C7.88629 23.6749 8.85678 24.756 8.85678 26.0566C8.85678 27.359 7.88629 28.4402 6.63269 28.616C6.75023 28.6324 6.87009 28.6415 6.99207 28.6415C8.41452 28.6415 9.57509 27.481 9.57509 26.0566C9.5751 24.6342 8.41452 23.4736 6.99207 23.4736Z" fill="#6F858E"/>
<path d="M25.84 23.4736C25.718 23.4736 25.5981 23.4828 25.4806 23.4992C26.7342 23.6749 27.7047 24.756 27.7047 26.0566C27.7047 27.359 26.7342 28.4402 25.4806 28.616C25.5981 28.6324 25.718 28.6415 25.84 28.6415C27.2624 28.6415 28.423 27.481 28.423 26.0566C28.423 24.6342 27.2624 23.4736 25.84 23.4736Z" fill="#6F858E"/>
<path d="M32.5867 21.3462L32.2061 22.763H30.5651C30.3748 22.763 30.2618 22.6085 30.3127 22.4163L30.5048 21.6947C30.5576 21.5026 30.7554 21.3462 30.9457 21.3462L32.5867 21.3462Z" fill="#F8CB66"/>
<path d="M14.1815 17.3114C11.9966 17.3114 10.219 15.5338 10.219 13.3488C10.219 11.1638 11.9966 9.38623 14.1815 9.38623C16.3675 9.38623 18.146 11.1638 18.146 13.3488C18.146 15.5338 16.3675 17.3114 14.1815 17.3114ZM14.1815 10.4497C12.5829 10.4497 11.2824 11.7502 11.2824 13.3488C11.2824 14.9474 12.5829 16.2479 14.1815 16.2479C15.7812 16.2479 17.0825 14.9474 17.0825 13.3488C17.0825 11.7502 15.7812 10.4497 14.1815 10.4497Z" fill="#EC5E5C"/>
<path d="M6.99207 27.219C7.63076 27.219 8.15264 26.6971 8.15264 26.0566C8.15264 25.4179 7.63076 24.896 6.99207 24.896C6.35149 24.896 5.82962 25.4179 5.82962 26.0566C5.82961 26.6971 6.35149 27.219 6.99207 27.219Z" fill="#E4F6FF"/>
<path d="M25.8399 27.219C26.4786 27.219 27.0005 26.6971 27.0005 26.0566C27.0005 25.4179 26.4786 24.896 25.8399 24.896C25.1994 24.896 24.6775 25.4179 24.6775 26.0566C24.6775 26.6971 25.1994 27.219 25.8399 27.219Z" fill="#E4F6FF"/>
<path d="M32.5863 21.3462H31.4891L31.1096 22.763H32.2069L32.5863 21.3462Z" fill="#EABD63"/>
<path d="M31.1096 22.763L30.6482 24.4857C30.5977 24.6744 30.4267 24.8057 30.2313 24.8057H28.9188C28.4229 23.5916 27.2289 22.7318 25.8402 22.7318C24.4497 22.7318 23.2552 23.5916 22.7592 24.8057H21.3267L22.3187 21.0923C22.2798 21.2376 22.1482 21.3386 21.9977 21.3386H20.8045L19.9432 24.554C19.9034 24.7024 19.7689 24.8057 19.6152 24.8057H10.0709C9.57505 23.5916 8.38102 22.7318 6.99234 22.7318C5.60182 22.7318 4.40734 23.5916 3.91134 24.8057H1.26662L1.17693 25.1405C1.1204 25.3516 1.27944 25.5588 1.49795 25.5588H4.45587C4.68897 24.373 5.73805 23.4732 6.99206 23.4732C8.2444 23.4732 9.2933 24.373 9.52638 25.5588H23.3038C23.5369 24.373 24.586 23.4732 25.84 23.4732C27.0923 23.4732 28.1412 24.373 28.3743 25.5588H31.2031C31.3535 25.5588 31.4852 25.4578 31.5241 25.3125L32.2069 22.763H31.1096Z" fill="#E05A5A"/>
<path d="M29.4277 11.3788L32.7941 15.9775C32.8555 16.0614 32.8756 16.1685 32.8487 16.269L31.489 21.3461H32.5863L33.9887 16.1097C34.0147 16.0125 33.9953 15.9087 33.9358 15.8275L30.676 11.3743C30.6134 11.2888 30.5138 11.2383 30.4078 11.2383H29.1508C29.2602 11.2383 29.3631 11.2905 29.4277 11.3788Z" fill="#E05A5A"/>
<path d="M14.1825 16.2475C15.7836 16.2475 17.0816 14.9495 17.0816 13.3484C17.0816 11.7472 15.7836 10.4492 14.1825 10.4492C12.5813 10.4492 11.2833 11.7472 11.2833 13.3484C11.2833 14.9495 12.5813 16.2475 14.1825 16.2475Z" fill="#E4F6FF"/>
<path d="M14.1825 10.4497C14.1285 10.4497 14.075 10.4515 14.0218 10.4543C15.5471 10.5379 16.7624 11.8041 16.7624 13.3488C16.7624 14.8936 15.547 16.1598 14.0217 16.2433C14.075 16.2462 14.1285 16.248 14.1825 16.248C15.7836 16.248 17.0816 14.95 17.0816 13.3488C17.0816 11.7477 15.7836 10.4497 14.1825 10.4497Z" fill="#DAEBF2"/>
<path d="M14.9877 14.6056C14.861 14.6056 14.734 14.5606 14.6324 14.4692L13.826 13.7439C13.7138 13.643 13.6498 13.4993 13.6498 13.3485V11.7622C13.6498 11.4685 13.8879 11.2305 14.1815 11.2305C14.4752 11.2305 14.7132 11.4685 14.7132 11.7622V13.1116L15.3435 13.6785C15.5618 13.8749 15.5796 14.2111 15.3833 14.4294C15.2783 14.5462 15.1333 14.6056 14.9877 14.6056Z" fill="#788F9B"/>
<path d="M7.06178 11.5537H10.6507C10.8538 11.1557 11.122 10.7966 11.4416 10.4902H7.06177C6.76813 10.4902 6.53006 10.7283 6.53006 11.0219C6.53007 11.3156 6.76815 11.5537 7.06178 11.5537Z" fill="#E4F6FF"/>
<path d="M3.71192 15.1436H0.531715C0.238046 15.1436 0 15.3816 0 15.6753C0 15.9689 0.238046 16.207 0.531715 16.207H3.71192C4.00557 16.207 4.24364 15.9689 4.24364 15.6753C4.24365 15.3816 4.00557 15.1436 3.71192 15.1436Z" fill="#E4F6FF"/>
<path d="M9.16624 12.8169C8.87259 12.8169 8.63452 13.055 8.63452 13.3486C8.63452 13.6422 8.8726 13.8803 9.16624 13.8803H10.2557C10.2322 13.7063 10.219 13.529 10.219 13.3486C10.219 13.1682 10.2322 12.991 10.2557 12.8169H9.16624Z" fill="#E4F6FF"/>
<path d="M1.76386 11.5537H4.95916C5.25281 11.5537 5.49088 11.3156 5.49088 11.0219C5.49088 10.7283 5.2528 10.4902 4.95916 10.4902H1.76386C1.47019 10.4902 1.23215 10.7283 1.23215 11.0219C1.23215 11.3156 1.47019 11.5537 1.76386 11.5537Z" fill="#E4F6FF"/>
<path d="M7.06175 15.1436H5.81638C5.52275 15.1436 5.28467 15.3816 5.28467 15.6753C5.28467 15.9689 5.52275 16.207 5.81638 16.207H7.06175C7.35539 16.207 7.59347 15.9689 7.59347 15.6753C7.59347 15.3816 7.35539 15.1436 7.06175 15.1436Z" fill="#E4F6FF"/>
<path d="M10.6507 15.1436H9.16624C8.87259 15.1436 8.63452 15.3816 8.63452 15.6753C8.63452 15.9689 8.8726 16.207 9.16624 16.207H11.4416C11.122 15.9006 10.8538 15.5415 10.6507 15.1436Z" fill="#E4F6FF"/>
<path d="M7.06177 12.8169H1.15531C0.861643 12.8169 0.623596 13.055 0.623596 13.3486C0.623596 13.6422 0.861643 13.8803 1.15531 13.8803H7.06177C7.35541 13.8803 7.59348 13.6422 7.59348 13.3486C7.59349 13.055 7.35541 12.8169 7.06177 12.8169Z" fill="#E4F6FF"/>
<path d="M27.8236 19.0028H31.4951C31.6456 19.0028 31.7772 18.9017 31.8161 18.7564L32.4475 16.3984C32.4736 16.3011 32.4541 16.1973 32.3946 16.1161L29.9582 12.7896C29.9582 12.7896 31.3785 17.2642 27.8236 19.0028Z" fill="#DAEBF2"/>
<path d="M14.1815 9.38623C14.1279 9.38623 14.0746 9.38816 14.0215 9.39029C16.1335 9.47466 17.8258 11.2175 17.8258 13.3488C17.8258 15.4801 16.1335 17.2229 14.0215 17.3073C14.0746 17.3094 14.1278 17.3114 14.1815 17.3114C16.3675 17.3114 18.146 15.5338 18.146 13.3488C18.146 11.1638 16.3675 9.38623 14.1815 9.38623Z" fill="#E05A5A"/>
<path d="M9.88346 12.8169C9.86958 12.9297 9.85951 13.0437 9.85413 13.1589C9.84917 13.2651 9.76179 13.3486 9.65549 13.3486H8.63452C8.63452 13.6422 8.8726 13.8803 9.16624 13.8803H10.2557C10.2322 13.7063 10.219 13.529 10.219 13.3486C10.219 13.1682 10.2322 12.991 10.2557 12.8169H9.88346Z" fill="#DAEBF2"/>
<path d="M10.6507 15.1436H10.2407C10.2774 15.2239 10.3166 15.3028 10.3581 15.3804C10.4295 15.5139 10.3347 15.6753 10.1833 15.6753H8.63452C8.63452 15.9689 8.8726 16.207 9.16624 16.207H11.4416C11.122 15.9006 10.8538 15.5415 10.6507 15.1436Z" fill="#DAEBF2"/>
<path d="M1.15531 13.8803H7.06177C7.35541 13.8803 7.59348 13.6423 7.59348 13.3486H0.623596C0.623596 13.6423 0.861643 13.8803 1.15531 13.8803Z" fill="#DAEBF2"/>
<path d="M0.531715 16.207H3.71192C4.00557 16.207 4.24364 15.9689 4.24364 15.6753H0C0 15.9689 0.238046 16.207 0.531715 16.207Z" fill="#DAEBF2"/>
<path d="M5.81638 16.207H7.06175C7.35539 16.207 7.59347 15.9689 7.59347 15.6753H5.28467C5.28467 15.9689 5.52275 16.207 5.81638 16.207Z" fill="#DAEBF2"/>
<path d="M1.76386 11.5537H4.95916C5.25281 11.5537 5.49088 11.3156 5.49088 11.022H1.23215C1.23215 11.3156 1.47019 11.5537 1.76386 11.5537Z" fill="#DAEBF2"/>
<path d="M7.06176 11.5537H10.6507C10.8538 11.1557 11.122 10.7966 11.4416 10.4902H10.9308C10.8078 10.6299 10.694 10.7776 10.5898 10.9323C10.5524 10.9878 10.4907 11.022 10.4237 11.022H6.53003C6.53004 11.3156 6.76812 11.5537 7.06176 11.5537Z" fill="#DAEBF2"/>
</g>
<defs>
<clipPath id="clip0_9057_114">
<rect width="34" height="34" fill="white"/>
</clipPath>
</defs>
</svg>
